<?xml version="1.0" standalone="no"?>
<!DOCTYPE svg PUBLIC "-//W3C//DTD SVG 1.1//EN" "http://www.w3.org/Graphics/SVG/1.1/DTD/svg11.dtd" >
<svg xmlns="http://www.w3.org/2000/svg">
<metadata>Generated by IcoMoon</metadata>
<defs>
<font id="sell-icon" horiz-adv-x="1024">
<font-face units-per-em="1024" ascent="960" descent="-64" />
<missing-glyph horiz-adv-x="1024" />
<glyph unicode="&#x20;" horiz-adv-x="512" d="" />
<glyph unicode="&#xe900;" glyph-name="home" d="M1024 369.556l-512 397.426-512-397.428v162.038l512 397.426 512-397.428zM896 384v-384h-256v256h-256v-256h-256v384l384 288z" />
<glyph unicode="&#xe901;" glyph-name="home2" d="M512 928l-512-512 96-96 96 96v-416h256v192h128v-192h256v416l96-96 96 96-512 512zM512 512c-35.346 0-64 28.654-64 64s28.654 64 64 64c35.346 0 64-28.654 64-64s-28.654-64-64-64z" />
<glyph unicode="&#xe902;" glyph-name="home3" d="M1024 352l-192 192v288h-128v-160l-192 192-512-512v-32h128v-320h320v192h128v-192h320v320h128z" />
<glyph unicode="&#xe903;" glyph-name="add_circle" d="M726 406v84h-172v172h-84v-172h-172v-84h172v-172h84v172h172zM512 874q176 0 301-125t125-301-125-301-301-125-301 125-125 301 125 301 301 125z" />
<glyph unicode="&#xe904;" glyph-name="arrow_lift" d="M246.784 491.691l443.051 442.709c24.917 24.917 62.464 24.917 87.381 0s24.917-62.464 0-87.381l-399.36-399.36 399.36-399.36c24.917-24.917 24.917-62.464 0-87.381s-62.464-24.917-87.381 0l-443.051 443.392c-24.917 24.917-24.917 62.464 0 87.381z" />
<glyph unicode="&#xe905;" glyph-name="check_circle" d="M426 234l384 384-60 62-324-324-152 152-60-60zM512 874q176 0 301-125t125-301-125-301-301-125-301 125-125 301 125 301 301 125z" />
<glyph unicode="&#xe906;" glyph-name="close" d="M810 686l-238-238 238-238-60-60-238 238-238-238-60 60 238 238-238 238 60 60 238-238 238 238z" />
<glyph unicode="&#xe907;" glyph-name="favorite" d="M512 50l-62 56c-220 200-364 330-364 492 0 132 102 234 234 234 74 0 146-36 192-90 46 54 118 90 192 90 132 0 234-102 234-234 0-162-144-294-364-494z" />
<glyph unicode="&#xe908;" glyph-name="keyboard_arrow_right" d="M366 262l196 196-196 196 60 60 256-256-256-256z" />
<glyph unicode="&#xe909;" glyph-name="remove_circle_outline" d="M512 106q140 0 241 101t101 241-101 241-241 101-241-101-101-241 101-241 241-101zM512 874q176 0 301-125t125-301-125-301-301-125-301 125-125 301 125 301 301 125zM298 490h428v-84h-428v84z" />
<glyph unicode="&#xe90a;" glyph-name="shopping_cart" d="M726 192q34 0 59-26t25-60-25-59-59-25-60 25-26 59 26 60 60 26zM42 874h140l40-84h632q18 0 30-13t12-31q0-10-6-20l-152-276q-24-44-74-44h-318l-38-70-2-6q0-10 10-10h494v-86h-512q-34 0-59 26t-25 60q0 20 10 40l58 106-154 324h-86v84zM298 192q34 0 60-26t26-60-26-59-60-25-59 25-25 59 25 60 59 26z" />
<glyph unicode="&#xe90b;" glyph-name="thumb_down" d="M810 832h172v-512h-172v512zM640 832q34 0 60-26t26-60v-426q0-34-26-60l-280-282-46 46q-18 18-18 44v14l42 196h-270q-34 0-60 25t-26 59l2 4h-2v82q0 16 6 32l130 300q20 52 78 52h384z" />
<glyph unicode="&#xe90c;" glyph-name="thumb_up" d="M982 534l-2-4h2v-82q0-16-6-32l-130-300q-20-52-78-52h-384q-34 0-60 26t-26 60v426q0 34 26 60l280 282 46-46q18-18 18-44v-14l-42-196h270q34 0 60-25t26-59zM42 64v512h172v-512h-172z" />
<glyph unicode="&#xe90d;" glyph-name="add_circle2" d="M726 406v84h-172v172h-84v-172h-172v-84h172v-172h84v172h172zM512 874q176 0 301-125t125-301-125-301-301-125-301 125-125 301 125 301 301 125z" />
<glyph unicode="&#xe90e;" glyph-name="arrow_lift2" d="M246.784 491.691l443.051 442.709c24.917 24.917 62.464 24.917 87.381 0s24.917-62.464 0-87.381l-399.36-399.36 399.36-399.36c24.917-24.917 24.917-62.464 0-87.381s-62.464-24.917-87.381 0l-443.051 443.392c-24.917 24.917-24.917 62.464 0 87.381z" />
<glyph unicode="&#xe90f;" glyph-name="check_circle2" d="M426 234l384 384-60 62-324-324-152 152-60-60zM512 874q176 0 301-125t125-301-125-301-301-125-301 125-125 301 125 301 301 125z" />
<glyph unicode="&#xe910;" glyph-name="close2" d="M810 686l-238-238 238-238-60-60-238 238-238-238-60 60 238 238-238 238 60 60 238-238 238 238z" />
<glyph unicode="&#xe911;" glyph-name="favorite2" d="M512 50l-62 56c-220 200-364 330-364 492 0 132 102 234 234 234 74 0 146-36 192-90 46 54 118 90 192 90 132 0 234-102 234-234 0-162-144-294-364-494z" />
<glyph unicode="&#xe912;" glyph-name="keyboard_arrow_right2" d="M366 262l196 196-196 196 60 60 256-256-256-256z" />
<glyph unicode="&#xe913;" glyph-name="remove_circle_outline2" d="M512 106q140 0 241 101t101 241-101 241-241 101-241-101-101-241 101-241 241-101zM512 874q176 0 301-125t125-301-125-301-301-125-301 125-125 301 125 301 301 125zM298 490h428v-84h-428v84z" />
<glyph unicode="&#xe914;" glyph-name="shopping_cart2" d="M726 192q34 0 59-26t25-60-25-59-59-25-60 25-26 59 26 60 60 26zM42 874h140l40-84h632q18 0 30-13t12-31q0-10-6-20l-152-276q-24-44-74-44h-318l-38-70-2-6q0-10 10-10h494v-86h-512q-34 0-59 26t-25 60q0 20 10 40l58 106-154 324h-86v84zM298 192q34 0 60-26t26-60-26-59-60-25-59 25-25 59 25 60 59 26z" />
<glyph unicode="&#xe915;" glyph-name="thumb_down2" d="M810 832h172v-512h-172v512zM640 832q34 0 60-26t26-60v-426q0-34-26-60l-280-282-46 46q-18 18-18 44v14l42 196h-270q-34 0-60 25t-26 59l2 4h-2v82q0 16 6 32l130 300q20 52 78 52h384z" />
<glyph unicode="&#xe916;" glyph-name="thumb_up2" d="M982 534l-2-4h2v-82q0-16-6-32l-130-300q-20-52-78-52h-384q-34 0-60 26t-26 60v426q0 34 26 60l280 282 46-46q18-18 18-44v-14l-42-196h270q34 0 60-25t26-59zM42 64v512h172v-512h-172z" />
<glyph unicode="&#xe917;" glyph-name="cart" d="M814.176 455.111c39.527 0 73.888 27.166 83.001 65.639l67.166 283.445c13.472 53.86-27.252 106.027-82.75 106.027h-767.668c-31.388 0-56.86-25.472-56.86-56.889s25.472-56.889 56.86-56.889h56.889v-483.556c0-47.14 38.194-85.333 85.278-85.333h597.111c31.417 0 56.86 25.472 56.86 56.889s-25.444 56.889-56.86 56.889h-568.667v113.778h529.639zM284.537 796.444h561.083l-53.916-227.556h-507.166v227.556zM312.981 170.667c-47.111 0-85.305-38.194-85.305-85.333s38.194-85.333 85.305-85.333 85.305 38.194 85.305 85.333-38.194 85.333-85.305 85.333zM767.897 170.667c-47.111 0-85.278-38.194-85.278-85.333s38.167-85.333 85.278-85.333 85.305 38.194 85.305 85.333-38.194 85.333-85.305 85.333z" />
<glyph unicode="&#xe918;" glyph-name="star" d="M767.011 0.161c-5.332 0-10.665 1.376-15.481 3.956l-241.336 133.827-241.852-132.967c-10.665-5.848-23.91-5.16-33.887 1.892s-15.137 19.266-13.073 31.307l46.96 284.683-196.44 202.117c-8.257 8.429-11.181 20.986-7.397 32.167 3.612 11.353 13.245 19.61 24.942 21.674l154.985 26.662c17.545 2.924 34.059-8.773 36.983-26.146s-8.773-33.887-26.146-36.983l-95.124-16.341 165.306-170.122c7.053-7.225 10.321-17.545 8.601-27.522l-38.875-235.659 199.536 109.745c9.633 5.332 21.33 5.332 30.963 0l199.192-110.433-38.015 235.831c-1.548 9.977 1.548 20.298 8.773 27.522l164.618 168.23-225.51 34.747c-10.493 1.548-19.61 8.429-24.082 18.061l-99.252 212.437-100.112-211.749c-7.569-15.997-26.662-22.878-42.659-15.309s-22.878 26.662-15.309 42.659l129.183 273.502c5.332 11.181 16.513 18.406 28.898 18.406 0 0 0 0 0 0 12.385 0 23.738-7.225 28.898-18.406l120.754-258.537 270.406-41.799c11.869-1.892 21.674-10.149 25.458-21.502s0.86-23.91-7.569-32.511l-196.956-201.257 45.928-284.855c1.892-12.041-3.268-24.254-13.245-31.307-5.16-4.128-11.525-6.020-18.061-6.020z" />
<glyph unicode="&#xe919;" glyph-name="star-fill" d="M957.259 555.767c-3.784 11.353-13.589 19.61-25.458 21.502l-270.406 41.799-120.754 258.537c-5.332 11.181-16.513 18.406-28.898 18.406 0 0 0 0 0 0-12.385 0-23.566-7.053-28.898-18.406l-121.786-258.021-270.922-40.767c-11.869-1.72-21.674-9.977-25.63-21.33s-1.032-23.91 7.397-32.511l196.44-202.117-46.96-284.855c-2.064-12.041 3.096-24.254 13.073-31.307s23.222-7.741 33.887-1.892l241.852 132.967 241.336-133.827c4.816-2.58 10.149-3.956 15.481-3.956 0.172 0 0.516 0 0.688 0 17.717 0 31.995 14.277 31.995 31.995 0 3.956-0.688 7.741-2.064 11.353l-44.896 278.663 196.956 201.257c8.429 8.601 11.353 21.158 7.569 32.511z" />
<glyph unicode="&#xe91a;" glyph-name="t-menu" d="M133.311 663.448h757.206c19.782 0 35.951 16.169 35.951 35.951s-15.997 35.951-35.951 35.951h-757.206c-19.782 0-35.951-16.169-35.951-35.951s16.169-35.951 35.951-35.951zM890.517 483.865h-757.206c-19.782 0-35.951-16.169-35.951-35.951s16.169-35.951 35.951-35.951h757.206c19.782 0 35.951 16.169 35.951 35.951s-16.169 35.951-35.951 35.951zM890.517 232.552h-757.206c-19.782 0-35.951-15.997-35.951-35.951s16.169-35.951 35.951-35.951h757.206c19.782 0 35.951 15.997 35.951 35.951s-16.169 35.951-35.951 35.951z" />
<glyph unicode="&#xe91b;" glyph-name="item" d="M362.644 904.737h-190.352c-61.043 0-110.527-49.484-110.527-110.527v-190.713c0-61.043 49.484-110.527 110.527-110.527h301.24v301.24c0 61.043-49.846 110.527-110.888 110.527zM403.46 625.168v-62.487h-199.021c-40.454 0-72.962 32.869-72.962 72.962v126.059c0 40.454 32.869 72.962 72.962 72.962h126.059c40.454 0 72.962-32.869 72.962-72.962v-136.533zM855.681 492.969c61.043 0 110.527 49.484 110.527 110.527v190.713c0 61.043-49.484 110.527-110.527 110.527h-190.713c-61.043 0-110.527-49.484-110.527-110.527v-301.24h301.24zM624.514 625.168v136.533c0 40.454 32.869 72.962 72.962 72.962h126.059c40.454 0 72.962-32.869 72.962-72.962v-126.059c0-40.454-32.869-72.962-72.962-72.962h-199.021v62.487zM172.292 411.699c-61.043 0-110.527-49.484-110.527-110.527v-190.713c0-61.043 49.484-110.527 110.527-110.527h190.713c61.043 0 110.527 49.484 110.527 110.527v301.24h-301.24zM403.46 279.501v-136.895c0-40.454-32.869-72.962-72.962-72.962h-126.059c-40.454 0-72.962 32.869-72.962 72.962v126.059c0 40.454 32.869 72.962 72.962 72.962h199.021v-62.126zM855.681 411.699h-301.24v-301.24c0-61.043 49.484-110.527 110.527-110.527h190.713c61.043 0 110.527 49.484 110.527 110.527v190.713c0.361 61.043-49.484 110.527-110.527 110.527zM896.497 142.967c0-40.454-32.869-72.962-72.962-72.962h-126.059c-40.454 0-72.962 32.869-72.962 72.962v199.021h199.021c40.454 0 72.962-32.869 72.962-72.962v-126.059z" />
<glyph unicode="&#xe91c;" glyph-name="t-phone" d="M371.51 126.672v-1.209c-6.551 0-11.356-0.504-14.178-0.504h-3.326c-69.814 0-126.054 55.837-128.003 125.55-1.075 34.235 11.288 67.361 34.739 92.256s55.165 39.476 89.4 40.45c0.336 0 3.763 0.202 4.065 0.202 26.81 0 52.511-8.399 74.618-24.492 31.010-10.952 62.355 4.368 92.962 45.422 30.472 40.753 36.889 73.072 19.049 96.019-6.35 4.569-12.464 10.012-18.512 16.462-1.075 1.041-2.049 2.15-2.99 3.326-20.024 22.61-31.514 51.235-32.421 80.732-1.949 70.754 53.822 129.884 124.273 131.866 0.336 0 3.628 0.067 3.931 0.067 59.264 0 111.675-41.996 124.576-99.916 10.415-32.152 37.023-159.516-90.946-330.59-118.394-158.542-233.294-175.643-277.238-175.643v0zM367.378 191.278c19.116-0.437 119.57 2.251 229.531 149.672 112.313 150.176 86.746 255.501 80.464 275.122-7.156 31.413-33.059 52.209-62.389 52.209-37.023-1.041-64.64-30.405-63.699-65.547 0.571-18.646 9.407-32.253 16.697-40.316 0.235-0.269 0.47-0.538 0.672-0.806 4.065-4.401 7.862-7.694 11.658-10.146 2.385-1.579 4.603-3.46 6.484-5.611 19.788-22.308 58.088-84.529-13.405-180.111-46.162-61.784-93.499-74.719-125.046-74.752-16.227 0-32.353 3.326-47.909 9.81-2.688 1.109-5.241 2.621-7.526 4.435-8.030 6.316-21.267 13.875-38.737 13.875-19.15-0.538-34.84-7.593-46.43-19.889-11.624-12.364-17.739-28.523-17.235-45.49 0.974-34.672 28.893-61.75 63.497-61.75 0.168 0 0.202-0.034 0.067-0.067 1.209 0.202 2.52 0.37 3.292 0.437 3.393-0.034 6.786-0.302 10.012-1.075v0zM515.706-7.479c-60.709 0-119.604 11.86-175.071 35.176-16.429 6.954-24.122 25.836-17.201 42.264 6.921 16.462 25.836 24.089 42.264 17.235 47.472-19.956 97.934-30.136 150.008-30.136 213.539 0 387.233 173.694 387.233 387.233 0 213.506-173.694 387.233-387.233 387.233s-387.233-173.728-387.233-387.267c0-73.005 20.427-144.095 59.063-205.611 9.441-15.118 4.905-35.008-10.18-44.482s-35.008-4.939-44.482 10.18c-45.154 71.863-68.974 154.813-68.974 239.913 0 249.084 202.654 451.772 451.772 451.772s451.772-202.654 451.772-451.772c0-249.084-202.654-451.739-451.739-451.739v0z" />
<glyph unicode="&#xe91d;" glyph-name="t-shop" d="M952.786 607.199c0 0.516-0.172 0.86-0.172 1.376-0.344 1.892-0.86 3.612-1.548 5.332l-75.17 186.807c-13.073 38.703-50.228 62.441-93.92 62.613h-526.535c-44.208 0-78.61-23.566-90.995-60.721l-80.675-190.592c-0.344-1.204-0.86-2.752-1.204-4.472-5.848-18.061-8.773-36.467-8.773-55.045 0-65.193 35.779-124.71 93.232-155.329 0 0 0 0 0 0s0 0 0 0v0c0 0 0 0 0 0 23.566-12.557 51.432-18.922 82.739-18.922 52.464 0.172 101.144 23.222 134.343 62.785 33.027-39.219 81.191-62.097 133.655-62.441 51.948 0.344 100.112 23.394 132.967 62.613 33.199-39.563 81.879-62.441 134.687-62.441 31.995 0.172 60.205 6.881 84.115 19.954 56.593 30.963 91.684 90.135 91.684 154.641 0.172 18.406-2.924 36.983-8.429 53.84zM839.085 454.623c-14.449-7.913-32.511-12.041-53.668-12.041-39.047 0-74.482 19.782-95.296 53.324-1.548 3.096-3.956 8.429-8.601 13.417-5.332 5.848-14.793 12.901-30.619 12.901-12.729 0-24.254-5.16-30.791-13.245-4.3-4.816-6.709-9.633-8.429-13.245-20.47-33.199-55.733-53.152-93.92-53.324-38.703 0.172-73.966 20.126-94.608 53.496-1.376 2.924-3.784 7.913-7.569 12.041-14.965 17.889-48.68 17.029-61.753 1.376-4.816-5.332-7.397-10.665-8.945-14.277-20.642-33.199-56.249-52.98-94.952-53.152-20.642 0-38.359 3.956-52.636 11.525v0c0 0 0 0 0 0-36.639 19.438-59.345 57.453-59.345 98.908 0 12.213 2.064 24.598 6.193 36.639 0.344 0.86 0.516 1.892 0.688 2.752l79.471 187.839c1.548 4.816 6.537 19.438 31.307 19.438h526.707c10.149-0.688 27.694-2.408 33.887-20.642l74.31-185.259c0.344-1.376 0.688-2.58 1.032-3.612 4.128-12.041 6.193-24.254 6.193-36.467-0.344-40.939-22.706-78.61-58.657-98.392zM862.995 352.102c-17.717 0-31.995-14.277-31.995-31.995v-174.594c0-9.977-8.085-18.061-18.061-18.061l-602.049-0.344c-9.977 0-18.061 8.085-18.061 17.889l-0.172 171.498c0 17.717-14.449 31.995-31.995 31.995 0 0 0 0 0 0-17.717 0-31.995-14.449-31.995-31.995l0.172-171.498c0-45.068 36.811-81.879 82.051-81.879l602.221 0.344c45.068 0.172 81.879 36.811 81.879 82.051v174.594c0 17.545-14.277 31.995-31.995 31.995zM768.043 576.065h-512.086c-17.717 0-31.995 14.277-31.995 31.995s14.277 31.995 31.995 31.995h511.914c17.717 0 31.995-14.277 31.995-31.995 0.172-17.717-14.277-31.995-31.823-31.995z" />
<glyph unicode="&#xe91e;" glyph-name="t-top" d="M796.423 435.522l-259.11 259.292c-6.368 6.399-14.689 9.471-22.977 9.408-1.12 0.096-2.080 0.64-3.2 0.64-4.672 0-9.024-1.087-13.024-2.88-4.032-1.536-7.872-3.872-11.137-7.135l-259.329-259.124c-12.513-12.48-12.544-32.735-0.033-45.248 6.239-6.272 14.432-9.408 22.657-9.408 8.192 0 16.352 3.136 22.624 9.344l206.24 206.162v-563.713c0-17.696 14.336-31.999 32.001-31.999s32.001 14.303 32.001 31.999v565.281l207.91-207.74c6.241-6.272 14.496-9.44 22.688-9.44s16.32 3.103 22.56 9.311c12.575 12.449 12.607 32.737 0.127 45.248zM864.003 768h-704c-17.665 0-32.001 14.336-32.001 32.001s14.336 31.999 32.001 31.999h704c17.696 0 31.999-14.336 31.999-32.001s-14.303-31.999-31.999-31.999z" />
<glyph unicode="&#xe91f;" glyph-name="t-order" d="M800.038 31.984h-576.075c-52.98 0-95.984 43.004-95.984 95.984v639.892c0 52.98 43.004 95.984 95.984 95.984h575.903c52.98 0 95.984-43.004 95.984-95.984v-639.892c0.172-52.808-43.004-95.984-95.812-95.984zM223.962 800.027c-17.545 0-31.995-14.449-31.995-31.995v-639.892c0-17.717 14.449-31.995 31.995-31.995h575.903c17.717 0 31.995 14.277 31.995 31.995v639.892c0 17.545-14.277 31.995-31.995 31.995h-575.903zM640.925 415.231h-353.145c-17.717 0-31.995 14.277-31.995 31.995s14.277 31.995 31.995 31.995h353.145c17.717 0 31.995-14.277 31.995-31.995s-14.277-31.995-31.995-31.995zM734.844 224.468h-447.237c-17.717 0-31.995 14.277-31.995 31.995s14.277 31.995 31.995 31.995h447.237c17.717 0 31.995-14.277 31.995-31.995s-14.277-31.995-31.995-31.995zM255.785 654.675c0-26.49 21.502-47.992 47.992-47.992s47.992 21.502 47.992 47.992-21.502 47.992-47.992 47.992-47.992-21.502-47.992-47.992zM463.062 654.675c0-26.49 21.502-47.992 47.992-47.992s47.992 21.502 47.992 47.992-21.502 47.992-47.992 47.992-47.992-21.502-47.992-47.992zM671.199 654.675c0-26.49 21.502-47.992 47.992-47.992s47.992 21.502 47.992 47.992-21.502 47.992-47.992 47.992-47.992-21.502-47.992-47.992z" />
<glyph unicode="&#xe920;" glyph-name="t-code" d="M149.898 572.433h154.232c49.484 0 89.577 40.093 89.577 89.577v154.232c0 49.484-40.093 89.577-89.216 89.577h-154.593c-49.484 0-89.577-40.093-89.577-89.577v-154.232c0-49.484 40.454-89.577 89.577-89.577zM136.533 816.243c0 7.224 6.14 13.364 13.364 13.364h154.232c7.224 0 13.364-6.14 13.364-13.364v-154.232c0-7.224-6.14-13.364-13.364-13.364h-154.232c-7.224 0-13.364 6.14-13.364 13.364v154.232zM304.491 331.513h-154.593c-49.484 0-89.577-40.093-89.577-89.577v-154.232c0-49.484 40.093-89.577 89.577-89.577h154.232c49.484 0 89.577 40.093 89.577 89.577v154.232c0 49.484-40.093 89.577-89.216 89.577zM317.494 87.704c0-7.224-6.14-13.364-13.364-13.364h-154.232c-7.224 0-13.364 6.14-13.364 13.364v154.232c0 7.224 6.14 13.364 13.364 13.364h154.232c7.224 0 13.364-6.14 13.364-13.364v-154.232zM878.798 905.82h-154.232c-49.484 0-89.577-40.093-89.577-89.577v-154.232c0-49.484 40.093-89.577 89.577-89.577h154.232c49.484 0 89.577 40.093 89.577 89.577v154.232c-0.361 49.484-40.454 89.577-89.577 89.577zM891.801 662.011c0-7.224-6.14-13.364-13.364-13.364h-154.232c-7.224 0-13.364 6.14-13.364 13.364v154.232c0 7.224 6.14 13.364 13.364 13.364h154.232c7.224 0 13.364-6.14 13.364-13.364v-154.232zM673.998 407.726c19.866 0 36.12 15.893 35.759 36.12 0 19.866-15.893 36.12-36.12 36.12h-126.059v141.59c0 19.866-15.893 36.12-36.12 35.759-19.866 0-36.12-15.893-36.12-36.12v-141.59h-378.898c-19.866 0-36.12-15.893-36.12-36.12 0-19.866 15.893-36.12 36.12-36.12h379.62v-169.041c0-19.866 15.893-36.12 36.12-36.12s36.12 15.893 36.12 36.12v169.041h125.697zM932.255 407.726c19.866 0 36.12 15.893 35.759 36.12 0 19.866-15.893 36.12-36.12 36.12h-79.825c-19.866 0-36.12-15.893-36.12-36.12 0-19.866 15.893-36.12 36.12-36.12h80.186zM511.819 793.126c19.866 0 36.12 15.893 36.12 36.12v41.899c0 19.866-15.893 36.12-36.12 35.759-19.866 0-36.12-15.893-36.12-36.12v-41.899c0.361-19.505 16.254-35.759 36.12-35.759zM511.819 110.82c-19.866 0-36.12-15.893-36.12-36.12v-41.899c0-19.866 15.893-36.12 36.12-36.12s36.12 15.893 36.12 36.12v42.26c0 19.866-16.254 35.759-36.12 35.759zM892.885 88.426c0-7.224-6.14-13.003-13.003-13.003h-38.648v-75.129h38.648c48.762 0 88.494 39.732 88.494 88.494v43.705h-75.129v-44.066zM879.52 328.985h-152.426c-48.762 0-88.494-39.732-88.494-88.494v-152.426c0-48.762 39.732-88.494 88.494-88.494h38.648v75.491h-38.648c-7.224 0-13.003 6.14-13.003 13.003v152.426c0 7.224 6.14 13.003 13.003 13.003h152.426c7.224 0 13.003-6.14 13.003-13.003v-33.592h75.491v33.592c0 48.762-39.732 88.494-88.494 88.494z" />
<glyph unicode="&#xe921;" glyph-name="library" horiz-adv-x="1088" d="M1024 0v64h-64v384h64v64h-192v-64h64v-384h-192v384h64v64h-192v-64h64v-384h-192v384h64v64h-192v-64h64v-384h-192v384h64v64h-192v-64h64v-384h-64v-64h-64v-64h1088v64h-64zM512 960h64l512-320v-64h-1088v64l512 320z" />
<glyph unicode="&#xe922;" glyph-name="t-feedback" d="M800.038-0.011h-576.075c-52.98 0-95.984 43.004-95.984 95.984v639.892c0 52.98 43.004 95.984 95.984 95.984h447.925c17.717 0 31.995-14.277 31.995-31.995s-14.277-31.995-31.995-31.995h-447.925c-17.545 0-31.995-14.449-31.995-31.995v-639.892c0-17.717 14.449-31.995 31.995-31.995h575.903c17.717 0 31.995 14.277 31.995 31.995v512.086c0 17.717 14.277 31.995 31.995 31.995s31.995-14.277 31.995-31.995v-511.914c0.172-52.98-43.004-96.156-95.812-96.156zM612.026 512.075c-8.257 0-16.341 3.096-22.706 9.461-12.557 12.557-12.557 32.683 0 45.24l318.054 317.882c12.557 12.557 32.683 12.557 45.24 0s12.557-32.683 0-45.24l-318.054-318.054c-6.193-6.193-14.449-9.289-22.534-9.289zM479.919 512.075h-191.968c-17.717 0-31.995 14.277-31.995 31.995s14.277 31.995 31.995 31.995h191.968c17.717 0 31.995-14.277 31.995-31.995s-14.277-31.995-31.995-31.995zM672.059 320.108h-384.108c-17.717 0-31.995 14.277-31.995 31.995s14.277 31.995 31.995 31.995h383.935c17.717 0 31.995-14.277 31.995-31.995s-14.277-31.995-31.823-31.995z" />
<glyph unicode="&#xe923;" glyph-name="t-share" d="M768.731 256.462c-35.607 0-67.946-14.793-91.167-38.359l-309.109 171.67c9.117 17.545 14.621 37.155 14.621 58.313 0 12.557-2.408 24.426-5.676 35.951l304.637 189.216c22.706-20.47 52.464-33.199 85.147-33.199 70.526 0 127.978 57.453 127.978 127.978s-57.453 127.978-127.978 127.978-127.978-57.453-127.978-127.978c0-14.621 2.924-28.382 7.397-41.455l-301.885-187.323c-23.050 22.706-54.7 36.983-89.791 36.983-70.526 0-127.978-57.453-127.978-127.978s57.453-127.978 127.978-127.978c25.63 0 49.54 7.741 69.494 20.814l321.15-178.379c-3.096-11.009-5.16-22.19-5.16-34.059 0-70.526 57.453-127.978 127.978-127.978s127.978 57.453 127.978 127.978-57.109 127.806-127.634 127.806zM767.183 832.022c35.263 0 63.989-28.726 63.989-63.989s-28.726-63.989-63.989-63.989-63.989 28.726-63.989 63.989 28.726 63.989 63.989 63.989zM191.108 448.086c0 35.263 28.726 63.989 63.989 63.989s63.989-28.726 63.989-63.989-28.726-63.989-63.989-63.989-63.989 28.726-63.989 63.989zM768.731 64.495c-35.263 0-63.989 28.726-63.989 63.989s28.726 63.989 63.989 63.989 63.989-28.726 63.989-63.989c0-35.435-28.726-63.989-63.989-63.989z" />
<glyph unicode="&#xe924;" glyph-name="t-cart" d="M352.457 127.968c-35.435 0-63.989-28.554-63.989-63.989s28.554-63.989 63.989-63.989 63.989 28.554 63.989 63.989c0 35.435-28.554 63.989-63.989 63.989v0zM800.554 127.968c-35.435 0-63.989-28.554-63.989-63.989s28.554-63.989 63.989-63.989 63.989 28.554 63.989 63.989c0 35.435-28.726 63.989-63.989 63.989v0zM864.027 159.962h-519.827c-46.1 0-86.695 36.467-92.2 83.083l-54.356 382.043-30.791 178.551c-1.892 15.653-16.169 28.382-29.93 28.382h-40.939c-17.717 0-31.995 14.277-31.995 31.995s14.277 31.995 31.995 31.995h40.767c46.616 0 87.727-36.467 93.404-83.083l30.791-177.863 54.528-383.763c1.72-14.793 15.309-27.35 28.726-27.35h519.827c17.717 0 31.995-14.277 31.995-31.995s-14.277-31.995-31.995-31.995zM384.28 287.941c-16.685 0-30.619 12.729-31.823 29.586-1.376 17.545 11.869 33.027 29.586 34.231l434.164 31.995c15.997 0.172 29.414 12.557 31.135 26.834l50.4 288.296c1.204 10.665-1.72 22.534-8.085 29.758-4.128 4.644-9.289 7.053-15.309 7.053h-554.401c-17.717 0-31.995 14.277-31.995 31.995s14.449 32.339 31.995 32.339h554.057c24.426 0 46.96-10.149 63.301-28.554 18.75-21.158 27.178-50.744 23.566-81.707l-50.4-288.468c-5.504-44.896-45.928-81.363-92.028-81.363l-431.755-31.823c-0.86 0-1.72-0.172-2.408-0.172z" />
<glyph unicode="&#xe925;" glyph-name="t-bag" d="M751.874-0.011h-475.103c-51.948 0-99.596 40.079-108.541 91.339l-68.634 415.586c-4.472 26.146 2.236 52.292 18.578 71.558 16.169 19.266 40.939 30.446 67.602 30.446h657.094c26.662 0 51.26-11.181 67.602-30.446s23.050-45.584 18.406-71.73l-68.462-415.070c-8.945-51.604-56.593-91.684-108.541-91.684zM185.775 544.758c-7.913 0-14.449-2.752-18.578-7.569-4.128-4.988-5.676-11.869-4.3-19.782l68.634-415.586c3.44-20.126 24.598-38.015 45.412-38.015h475.103c20.642 0 41.971 17.889 45.412 38.187l68.462 415.070c1.376 8.085-0.172 14.965-4.3 19.954s-10.837 7.569-18.578 7.569l-657.266 0.172zM320.462 352.618c-35.263 0-63.989 28.726-63.989 63.989s28.726 63.989 63.989 63.989c35.263 0 63.989-28.726 63.989-63.989s-28.726-63.989-63.989-63.989zM320.462 416.607c0 0-0.172 0 0 0v0zM706.29 352.618c-35.263 0-63.989 28.726-63.989 63.989s28.726 63.989 63.989 63.989 63.989-28.726 63.989-63.989c0-35.263-28.726-63.989-63.989-63.989zM706.29 416.607c0 0 0 0 0 0v0zM738.285 640.054c-17.717 0-31.995 14.277-31.995 31.995 0 91.512-102.176 159.973-193.688 159.973-93.576 0-190.248-59.689-190.248-159.629 0-17.717-14.277-31.995-31.995-31.995s-31.995 14.277-31.995 31.995c0 140.019 129.355 223.618 254.409 223.618 121.958 0 257.677-92.028 257.677-223.962-0.172-17.717-14.449-31.995-32.167-31.995z" />
<glyph unicode="&#xe926;" glyph-name="t-close" d="M557.312 446.751l265.28 263.904c12.544 12.48 12.607 32.704 0.127 45.248-12.513 12.576-32.704 12.607-45.248 0.127l-265.344-263.935-263.039 263.841c-12.447 12.48-32.704 12.544-45.248 0.064-12.513-12.48-12.544-32.735-0.064-45.281l262.975-263.775-265.151-263.744c-12.544-12.48-12.607-32.704-0.127-45.248 6.239-6.272 14.463-9.44 22.688-9.44 8.161 0 16.32 3.103 22.56 9.311l265.217 263.808 265.44-266.24c6.239-6.272 14.432-9.408 22.657-9.408 8.192 0 16.352 3.136 22.591 9.344 12.513 12.48 12.544 32.704 0.064 45.248l-265.379 266.177z" />
<glyph unicode="&#xe927;" glyph-name="t-close-b" d="M512 0c-247.039 0-448 200.961-448 448s200.961 448 448 448 448-200.961 448-448-200.961-448-448-448zM512 831.713c-211.584 0-383.713-172.128-383.713-383.713 0-211.552 172.128-383.713 383.713-383.713 211.552 0 383.713 172.159 383.713 383.713 0 211.584-172.161 383.713-383.713 383.713zM557.055 446.624l138.368 136.864c12.576 12.416 12.673 32.672 0.256 45.248s-32.704 12.673-45.248 0.256l-138.56-137.024-136.448 136.864c-12.513 12.513-32.735 12.576-45.248 0.064-12.513-12.48-12.544-32.735-0.064-45.248l136.255-136.672-137.377-135.904c-12.576-12.447-12.673-32.672-0.256-45.248 6.272-6.335 14.496-9.504 22.751-9.504 8.128 0 16.256 3.103 22.497 9.248l137.568 136.064 138.688-139.137c6.241-6.272 14.432-9.408 22.657-9.408 8.192 0 16.352 3.136 22.591 9.344 12.513 12.48 12.544 32.704 0.064 45.248l-138.493 138.944z" />
<glyph unicode="&#xe928;" glyph-name="t-red-bage" d="M516.042 607.887c-1.892 0-3.784 0.172-5.676 0.516l-355.725 63.989c-15.137 2.752-26.318 15.997-26.318 31.479v95.984c0 52.808 43.004 95.984 95.984 95.984h575.559c52.808 0 95.984-43.004 95.984-95.984v-95.984c0-15.481-11.009-28.726-26.146-31.479l-347.813-63.989c-2.064-0.344-3.956-0.516-5.848-0.516zM192.14 730.533l323.731-58.141 315.818 58.141v69.322c0 17.545-14.277 31.995-31.995 31.995h-575.559c-17.545 0-31.995-14.277-31.995-31.995 0 0 0-69.322 0-69.322zM799.866 0.333h-575.731c-52.808 0-95.984 43.004-95.984 95.984v479.575c0 17.717 14.277 31.995 31.995 31.995s31.995-14.277 31.995-31.995v-479.747c0-17.717 14.277-31.995 31.995-31.995h575.731c17.717 0 31.995 14.277 31.995 31.995v479.747c0 17.717 14.277 31.995 31.995 31.995s31.995-14.277 31.995-31.995v-479.747c-0.172-52.808-43.176-95.812-95.984-95.812zM607.726 320.108c17.717 0 31.995 14.277 31.995 31.995s-14.277 31.995-31.995 31.995h-51.776l76.030 73.278c12.729 12.213 13.073 32.511 0.86 45.068-12.213 12.729-32.511 12.901-45.24 0.688l-76.202-73.622-73.278 73.106c-12.557 12.557-32.855 12.557-45.24 0-12.557-12.557-12.385-32.511 0-45.068l73.966-73.622h-51.088c-17.717 0-31.995-14.277-31.995-31.995s14.277-31.995 31.995-31.995h64.161v-31.995h-64.161c-17.717 0-31.995-14.277-31.995-31.995s14.277-31.995 31.995-31.995h64.161v-64.333c0-17.717 14.277-31.995 31.995-31.995s31.995 14.277 31.995 31.995v64.333h63.817c17.717 0 31.995 14.277 31.995 31.995s-14.277 31.995-31.995 31.995h-63.817v32.167h63.817z" />
<glyph unicode="&#xe929;" glyph-name="t-outdoors" d="M970.181 114.794c-184.212 523.739-207.328 590.2-210.579 598.868v0c-3.612 12.642-15.893 21.672-28.896 21.672-13.364 0-25.284-9.030-28.896-21.672l-129.671-367.701-183.489 527.712c-3.251 14.087-15.893 23.839-29.98 23.839-14.448 0-27.090-10.114-30.341-24.2l-268.371-759.602c-1.806-2.528-2.89-5.779-2.89-8.669v-35.398c0-8.308 6.863-15.17 15.17-15.17h886.383c8.308 0 15.17 6.863 15.17 15.17v35.398c0 3.612-1.445 6.863-3.612 9.752zM131.838 119.85l226.472 641.129 175.543-504.234c1.445-19.866 17.699-35.398 37.926-35.398 18.782 0 34.314 13.364 37.565 31.786l121.363 345.668 167.958-478.589-766.826-0.361z" />
<glyph unicode="&#xe92a;" glyph-name="t-add" d="M512 1.983c-119.648 0-232.129 46.368-316.737 130.56-84.641 84.255-131.263 196.256-131.263 315.455 0 119.168 46.624 231.2 131.232 315.424 84.608 84.192 197.088 130.56 316.737 130.56s232.129-46.368 316.704-130.56c84.672-84.224 131.263-196.256 131.263-315.392 0.033-119.199-46.592-231.233-131.263-315.455-84.544-84.192-197.025-130.592-316.673-130.592zM512 830.017c-102.624 0-199.072-39.743-271.583-111.937-72.481-72.128-112.417-168.063-112.417-270.080s39.903-197.952 112.384-270.047c72.512-72.192 168.96-111.937 271.583-111.937 102.593 0 199.072 39.743 271.583 111.937 72.481 72.161 112.417 168.063 112.384 270.080 0 102.016-39.903 197.919-112.384 270.016-72.479 72.192-168.958 111.968-271.551 111.968zM736.001 479.999h-192v192c0 17.665-14.336 32.001-32.001 32.001s-32.001-14.336-32.001-32.001v-192h-191.998c-17.665 0-32.001-14.336-32.001-32.001s14.336-32.001 32.001-32.001h192v-192c0-17.696 14.336-32.001 32.001-32.001s32.001 14.303 32.001 32.001v192.002h192c17.696 0 32.001 14.336 32.001 32.001s-14.307 31.999-32.003 31.999z" />
<glyph unicode="&#xe92b;" glyph-name="t-add-b" d="M863.328 478.659l-317.344-0.1v318.624c0 17.665-14.336 32.001-32.001 32.001s-31.999-14.336-31.999-32.001v-318.4l-322.369 0.177c-0.033 0-0.064 0-0.096 0-17.632 0-31.935-14.24-32.001-31.905-0.096-17.665 14.209-32.032 31.872-32.095l322.592-0.177v-319.167c0-17.696 14.336-32.001 31.999-32.001s32.001 14.303 32.001 32.001v318.944l317.088 0.1c0.064 0 0.096 0 0.127 0 17.632 0 31.935 14.24 32.001 31.905s-14.238 32.032-31.87 32.095z" />
<glyph unicode="&#xe92c;" glyph-name="t-add-b-fill" d="M828.704 763.424c-84.608 84.192-197.056 130.56-316.704 130.56s-232.129-46.368-316.737-130.56c-84.639-84.224-131.263-196.256-131.263-315.424 0-119.199 46.624-231.2 131.232-315.424 84.608-84.192 197.088-130.56 316.737-130.56s232.129 46.368 316.704 130.56c84.672 84.255 131.296 196.288 131.263 315.455 0.031 119.168-46.561 231.169-131.232 315.393zM736.001 415.999h-192v-192c0-17.696-14.336-32.001-32.001-32.001s-32.001 14.303-32.001 32.001v192h-191.998c-17.665 0-32.001 14.336-32.001 32.001s14.336 32.001 32.001 32.001h192v191.998c0 17.665 14.336 32.001 32.001 32.001s32.001-14.336 32.001-32.001v-192h192c17.696 0 32.001-14.336 32.001-32.001s-14.307-31.999-32.003-31.999z" />
<glyph unicode="&#xe92d;" glyph-name="t-minus" d="M863.745 415.999h-700.32c-17.665 0-32.001 14.336-32.001 32.001s14.336 32.001 32.001 32.001h700.32c17.696 0 31.999-14.336 31.999-32.001s-14.303-32.001-31.999-32.001z" />
<glyph unicode="&#xe92e;" glyph-name="t-column" d="M383.935 480.081h-191.968c-52.98 0-95.984 43.004-95.984 95.984v191.968c0 52.98 43.004 95.984 95.984 95.984h191.968c52.98 0 95.984-43.004 95.984-95.984v-191.968c0-52.98-43.004-95.984-95.984-95.984zM191.968 800.027c-17.545 0-31.995-14.449-31.995-31.995v-191.968c0-17.545 14.449-31.995 31.995-31.995h191.968c17.545 0 31.995 14.449 31.995 31.995v191.968c0 17.545-14.449 31.995-31.995 31.995h-191.968zM383.935 31.984h-191.968c-52.98 0-95.984 43.004-95.984 95.984v192.14c0 52.98 43.004 95.984 95.984 95.984h191.968c52.98 0 95.984-43.004 95.984-95.984v-191.968c0-52.98-43.004-96.156-95.984-96.156zM191.968 352.102c-17.545 0-31.995-14.277-31.995-31.995v-191.968c0-17.717 14.449-31.995 31.995-31.995h191.968c17.545 0 31.995 14.277 31.995 31.995v191.968c0 17.717-14.449 31.995-31.995 31.995h-191.968zM832.032 31.984h-192.14c-52.98 0-95.984 43.004-95.984 95.984v63.989c0 52.98 43.004 95.984 95.984 95.984h191.968c52.98 0 95.984-43.004 95.984-95.984v-63.989c0.172-52.808-43.004-95.984-95.812-95.984zM639.892 223.952c-17.717 0-31.995-14.277-31.995-31.995v-63.989c0-17.717 14.277-31.995 31.995-31.995h191.968c17.717 0 31.995 14.277 31.995 31.995v63.989c0 17.717-14.277 31.995-31.995 31.995h-191.968zM832.032 352.102h-192.14c-52.98 0-95.984 43.004-95.984 95.984v319.946c0 52.98 43.004 95.984 95.984 95.984h191.968c52.98 0 95.984-43.004 95.984-95.984v-319.946c0.172-52.98-43.004-95.984-95.812-95.984zM639.892 800.027c-17.717 0-31.995-14.449-31.995-31.995v-319.946c0-17.545 14.277-31.995 31.995-31.995h191.968c17.717 0 31.995 14.449 31.995 31.995v319.946c0 17.545-14.277 31.995-31.995 31.995h-191.968z" />
<glyph unicode="&#xe92f;" glyph-name="t-severce" d="M190.592-0.527c-17.717 0-31.995 14.277-31.995 31.995 0 69.494 82.051 119.722 226.371 139.847v9.633c-97.876 74.998-97.876 213.986-97.876 298.616 0 139.675 82.223 223.102 219.834 223.102h7.397c137.611 0 219.834-83.427 219.834-223.102 0-10.321-0.172-20.642-0.344-31.307-0.516-17.717-14.965-31.651-32.855-31.135-17.717 0.516-31.651 15.137-31.135 32.855 0.344 9.977 0.344 19.782 0.344 29.586 0 105.617-52.464 159.113-155.845 159.113h-7.397c-103.38 0-155.845-53.496-155.845-159.113 0-102.176 6.365-206.245 83.083-255.097 9.289-5.848 14.793-15.997 14.793-27.006v-54.528c0-16.341-12.385-30.102-28.554-31.823-128.495-13.589-197.816-51.26-197.816-79.643 0-17.545-14.449-31.995-31.995-31.995zM833.752-0.527c-17.717 0-31.995 14.277-31.995 31.995 0 28.554-69.322 66.053-197.816 79.643-16.341 1.72-28.726 15.481-28.726 31.823v54.7c0 17.717 14.277 31.995 31.995 31.995s31.995-14.277 31.995-31.995v-26.318c144.32-19.954 226.371-70.354 226.371-139.847 0.172-17.545-14.105-31.995-31.823-31.995zM612.198 286.565c-44.036 0-76.89 4.472-77.75 4.644-15.825 4.816-25.286 20.814-21.846 37.155 3.268 16.169 18.406 26.834 34.919 25.286 79.815-8.773 201.601-1.204 222.93 43.176 7.569 15.825 26.662 22.706 42.659 14.965 15.997-7.569 22.706-26.834 14.965-42.659-33.371-69.494-140.708-82.567-215.878-82.567zM896.022 320.108c-17.717 0-31.995 14.277-31.995 31.995v111.809l-42.832 15.309c-12.729 4.472-21.33 16.685-21.33 30.102 0 160.489-129.183 291.22-287.952 291.22s-287.952-130.731-287.952-291.22c0-10.321-4.988-19.954-13.417-25.974l-18.578-13.245v-118.002c0-17.717-14.277-31.995-31.995-31.995s-31.995 14.277-31.995 31.995v134.343c0 10.321 4.988 19.954 13.417 25.974l18.922 13.589c8.773 188.011 163.069 338.352 351.597 338.352 186.463 0 339.556-147.072 351.253-332.331l43.52-15.481c12.729-4.472 21.33-16.685 21.33-30.102v-134.343c0-17.717-14.277-31.995-31.995-31.995z" />
<glyph unicode="&#xe930;" glyph-name="t-classify" d="M350.393 663.448h574.527c19.782 0 35.951 16.169 35.951 35.951s-15.997 35.951-35.951 35.951h-574.527c-19.782 0-35.951-16.169-35.951-35.951s16.169-35.951 35.951-35.951zM924.92 483.865h-574.527c-19.782 0-35.951-16.169-35.951-35.951s16.169-35.951 35.951-35.951h574.527c19.782 0 35.951 16.169 35.951 35.951s-16.169 35.951-35.951 35.951zM924.92 232.552h-574.527c-19.782 0-35.951-15.997-35.951-35.951s16.169-35.951 35.951-35.951h574.527c19.782 0 35.951 15.997 35.951 35.951s-16.169 35.951-35.951 35.951zM63.129 699.399c0-39.735 32.167-71.902 71.902-71.902s71.902 32.167 71.902 71.902-32.167 71.902-71.902 71.902-71.902-32.339-71.902-71.902zM63.129 448.086c0-39.735 32.167-71.902 71.902-71.902s71.902 32.167 71.902 71.902c0 39.735-32.167 71.902-71.902 71.902s-71.902-32.339-71.902-71.902zM63.129 196.601c0-39.735 32.167-71.902 71.902-71.902s71.902 32.167 71.902 71.902c0 39.735-32.167 71.902-71.902 71.902s-71.902-32.167-71.902-71.902z" />
<glyph unicode="&#xe931;" glyph-name="t-ul" d="M896.022 704.043h-288.124c-17.717 0-31.995 14.277-31.995 31.995s14.277 31.995 31.995 31.995h287.952c17.717 0 31.995-14.277 31.995-31.995 0.172-17.717-14.105-31.995-31.823-31.995zM896.022 544.070h-288.124c-17.717 0-31.995 14.277-31.995 31.995s14.277 31.995 31.995 31.995h287.952c17.717 0 31.995-14.277 31.995-31.995s-14.105-31.995-31.823-31.995zM896.022 287.941h-288.124c-17.717 0-31.995 14.277-31.995 31.995s14.277 31.995 31.995 31.995h287.952c17.717 0 31.995-14.277 31.995-31.995s-14.105-31.995-31.823-31.995zM896.022 127.968h-288.124c-17.717 0-31.995 14.277-31.995 31.995s14.277 31.995 31.995 31.995h287.952c17.717 0 31.995-14.277 31.995-31.995s-14.105-31.995-31.823-31.995zM383.935 480.081h-191.968c-52.98 0-95.984 43.004-95.984 95.984v191.968c0 52.98 43.004 95.984 95.984 95.984h191.968c52.98 0 95.984-43.004 95.984-95.984v-191.968c0-52.98-43.004-95.984-95.984-95.984zM191.968 800.027c-17.545 0-31.995-14.449-31.995-31.995v-191.968c0-17.545 14.449-31.995 31.995-31.995h191.968c17.545 0 31.995 14.449 31.995 31.995v191.968c0 17.545-14.449 31.995-31.995 31.995h-191.968zM383.935 31.984h-191.968c-52.98 0-95.984 43.004-95.984 95.984v192.14c0 52.98 43.004 95.984 95.984 95.984h191.968c52.98 0 95.984-43.004 95.984-95.984v-191.968c0-52.98-43.004-96.156-95.984-96.156zM191.968 352.102c-17.545 0-31.995-14.277-31.995-31.995v-191.968c0-17.717 14.449-31.995 31.995-31.995h191.968c17.545 0 31.995 14.277 31.995 31.995v191.968c0 17.717-14.449 31.995-31.995 31.995h-191.968z" />
<glyph unicode="&#xe932;" glyph-name="t-word" d="M511.914 31.984c-8.257 0-16.341 3.096-22.706 9.461l-95.984 95.984c-12.557 12.557-12.557 32.683 0 45.24s32.683 12.557 45.24 0l73.45-73.45 73.45 73.45c6.020 6.020 14.105 9.461 22.706 9.461h223.962c17.717 0 31.995 14.277 31.995 31.995v511.914c0 17.545-14.277 31.995-31.995 31.995h-639.892c-17.545 0-31.995-14.449-31.995-31.995v-511.914c0-17.717 14.449-31.995 31.995-31.995h95.984c17.717 0 31.995-14.277 31.995-31.995s-14.277-31.995-31.995-31.995h-95.984c-52.98 0-95.984 43.004-95.984 95.984v511.914c0 52.98 43.004 95.984 95.984 95.984h639.892c52.98 0 95.984-43.004 95.984-95.984v-511.914c0-52.98-43.004-95.984-95.984-95.984h-210.889l-86.523-86.695c-6.193-6.193-14.449-9.461-22.706-9.461zM335.944 448.086c-26.49 0-47.992 21.502-47.992 47.992s21.502 47.992 47.992 47.992 47.992-21.502 47.992-47.992-21.502-47.992-47.992-47.992zM527.911 448.086c-26.49 0-47.992 21.502-47.992 47.992s21.502 47.992 47.992 47.992 47.992-21.502 47.992-47.992-21.502-47.992-47.992-47.992zM720.051 448.086c-26.49 0-47.992 21.502-47.992 47.992s21.502 47.992 47.992 47.992c26.49 0 47.992-21.502 47.992-47.992s-21.674-47.992-47.992-47.992z" />
<glyph unicode="&#xe933;" glyph-name="t-brand" d="M296.906 620.473c-3.612-9.391-5.418-19.505-5.418-29.98 0-46.234 37.565-83.798 83.798-83.798s83.798 37.565 83.798 83.798-37.565 83.798-83.798 83.798c-10.475 0-20.588-1.806-29.98-5.418l-124.614 124.614c-13.364 13.364-35.036 13.364-48.401 0s-13.364-35.036 0-48.401l124.614-124.614zM932.617 482.133l-380.704 380.704c-47.317 47.317-124.253 47.317-171.57 0l-48.762-48.762 0.361-0.361c-5.057-5.779-7.946-13.003-7.946-21.311 0-17.699 14.448-32.147 32.147-32.147 7.946 0 15.532 2.89 21.311 7.946l0.361-0.361 48.401 49.123c22.033 22.033 57.792 22.033 79.464 0l380.704-380.704c22.033-22.033 21.672-57.792 0-79.464l-277.401-277.401c-22.033-22.033-57.792-22.033-79.464 0l-380.704 380.343c-22.033 22.033-21.672 57.792 0 79.464l48.762 48.762-0.361 0.361c5.057 5.779 7.946 13.003 7.946 21.311 0 17.699-14.448 32.147-32.147 32.147-7.946 0-15.532-2.89-21.311-7.946l-0.361 0.361-48.762-48.762c-47.317-47.317-47.317-124.253 0-171.57l380.704-380.704c47.317-47.317 124.253-47.317 171.57 0l277.401 277.401c47.678 47.317 47.678 124.253 0.361 171.57z" />
<glyph unicode="&#xe934;" glyph-name="t-filtrate" d="M608.242-0.011c-17.717 0-31.995 14.277-31.995 31.995v479.919c0 7.913 2.924 15.653 8.257 21.502l208.825 234.455h-562.83l209.169-234.627c5.16-5.848 8.085-13.417 8.085-21.33v-288.812l50.916-41.111c13.761-11.181 15.825-31.307 4.816-45.068s-31.307-15.825-45.068-4.816l-62.785 51.088c-7.569 6.020-11.869 15.309-11.869 24.942v291.736l-248.56 278.835c-8.429 9.461-10.493 22.878-5.332 34.403s16.685 18.922 29.242 18.922h706.29c12.729 0 24.082-7.397 29.242-19.094 5.16-11.525 2.924-25.114-5.504-34.403l-248.904-278.835v-467.706c0-17.717-14.277-31.995-31.995-31.995z" />
<glyph unicode="&#xe935;" glyph-name="t-delete" d="M607.898 191.957c-17.717 0-31.995 14.277-31.995 31.995v352.113c0 17.717 14.277 31.995 31.995 31.995s31.995-14.277 31.995-31.995v-351.941c0-17.717-14.277-32.167-31.995-32.167zM415.93 191.957c-17.717 0-31.995 14.277-31.995 31.995v352.113c0 17.717 14.277 31.995 31.995 31.995s31.995-14.277 31.995-31.995v-351.941c0-17.717-14.277-32.167-31.995-32.167zM928.016 736.038h-159.973v63.989c0 52.98-42.659 95.984-95.296 95.984h-320.806c-52.98 0-95.984-43.004-95.984-95.984v-63.989h-159.973c-17.717 0-31.995-14.277-31.995-31.995s14.277-31.995 31.995-31.995h832.032c17.717 0 31.995 14.277 31.995 31.995s-14.277 31.995-31.995 31.995zM319.946 800.027c0 17.545 14.449 31.995 31.995 31.995h320.806c17.545 0 31.307-14.105 31.307-31.995v-63.989h-384.108v63.989zM736.048-0.011h-447.925c-52.98 0-95.984 43.004-95.984 95.984v480.435c0 17.717 14.277 31.995 31.995 31.995s31.995-14.277 31.995-31.995v-480.435c0-17.717 14.449-31.995 31.995-31.995h448.097c17.717 0 31.995 14.277 31.995 31.995v479.231c0 17.717 14.277 31.995 31.995 31.995s31.995-14.277 31.995-31.995v-479.231c-0.172-52.808-43.176-95.984-96.156-95.984z" />
<glyph unicode="&#xe936;" glyph-name="t-set" d="M511.914 352.102c-52.98 0-95.984 43.004-95.984 95.984s43.004 95.984 95.984 95.984 95.984-43.004 95.984-95.984-43.004-95.984-95.984-95.984zM511.914 480.081c-17.545 0-31.995-14.449-31.995-31.995s14.449-31.995 31.995-31.995 31.995 14.449 31.995 31.995-14.277 31.995-31.995 31.995zM630.948-0.011c-9.977 0-19.782 4.816-25.802 13.073l-73.45 100.628c-13.589-0.86-25.974-0.86-39.563 0l-73.45-100.456c-7.913-10.837-21.674-15.653-34.575-11.869-34.575 9.805-67.43 23.394-97.704 40.251-11.697 6.537-18.061 19.61-15.997 32.855l19.266 123.334c-9.805 8.773-19.094 18.061-27.866 27.866l-123.334-19.266c-13.073-2.064-26.318 4.3-32.855 15.997-16.857 30.446-30.446 63.301-40.251 97.876-3.612 12.901 1.032 26.662 11.869 34.575l100.456 73.45c-0.516 6.881-0.688 13.417-0.688 19.782s0.172 12.901 0.688 19.782l-100.456 73.45c-10.837 7.913-15.653 21.674-11.869 34.575 9.805 34.575 23.394 67.43 40.251 97.704 6.537 11.697 19.782 18.061 32.855 15.997l123.334-19.266c8.773 9.805 18.061 19.094 27.866 27.866l-19.266 123.334c-2.064 13.245 4.3 26.318 16.169 32.855 30.446 16.857 63.301 30.446 97.704 40.251 12.901 3.612 26.662-1.032 34.575-11.869l73.45-100.456c13.589 0.86 25.802 0.86 39.563 0l73.45 100.456c7.913 10.837 21.674 15.481 34.575 11.869 34.403-9.805 67.258-23.394 97.704-40.251 11.697-6.537 18.061-19.61 15.997-32.855l-19.266-123.334c9.805-8.773 19.094-18.061 27.866-27.694l123.334 19.266c13.073 2.064 26.318-4.3 32.855-15.997 16.857-30.446 30.446-63.301 40.423-97.876 3.612-12.901-1.032-26.662-11.869-34.575l-100.628-73.45c0.516-6.881 0.688-13.417 0.688-19.782s-0.172-12.901-0.688-19.782l100.456-73.45c10.837-7.913 15.481-21.674 11.869-34.575-9.805-34.575-23.394-67.43-40.423-97.876-6.537-11.697-19.438-18.061-32.855-15.997l-123.162 19.094c-8.601-9.805-18.061-19.094-27.866-27.694l19.266-123.334c2.064-13.245-4.3-26.318-15.997-32.855-30.274-16.857-63.129-30.446-97.704-40.251-2.924-0.86-5.848-1.376-8.945-1.376zM337.148 87.372c13.933-6.709 28.554-12.729 43.52-17.889l70.526 96.5c6.709 9.289 18.061 14.277 29.414 12.901 20.642-2.408 42.143-2.408 62.613 0 11.869 1.376 22.706-3.612 29.414-12.901l70.526-96.5c14.965 5.16 29.586 11.181 43.52 17.889l-18.406 118.346c-1.72 11.353 2.752 22.878 11.697 29.93 16.341 13.073 31.307 27.866 44.208 44.208 7.225 8.945 18.406 13.589 29.93 11.697l118.346-18.406c6.709 13.933 12.729 28.554 17.889 43.52l-96.5 70.526c-9.289 6.709-14.277 18.061-12.901 29.414 1.204 10.321 1.892 20.642 1.892 31.307s-0.688 20.986-1.892 31.307c-1.376 11.353 3.612 22.706 12.901 29.414l96.5 70.526c-5.16 14.965-11.181 29.586-17.889 43.52l-118.346-18.406c-11.353-1.72-22.878 2.752-29.93 11.697-12.901 16.169-27.694 31.135-44.208 44.208-8.945 7.225-13.417 18.578-11.697 29.93l18.578 118.518c-13.933 6.709-28.554 12.729-43.52 17.889l-70.526-96.5c-6.709-9.289-17.717-14.449-29.414-12.901-20.47 2.408-41.971 2.408-62.613 0-11.525-1.376-22.706 3.612-29.586 12.901l-70.526 96.5c-14.965-5.16-29.586-11.181-43.52-17.889l18.406-118.346c1.72-11.353-2.752-22.878-11.697-29.93-16.341-12.901-31.135-27.866-44.208-44.208-7.225-8.945-18.578-13.417-29.93-11.697l-118.346 18.406c-6.709-13.933-12.729-28.554-17.889-43.52l96.5-70.526c9.289-6.709 14.277-18.061 12.901-29.586-1.204-10.149-1.892-20.642-1.892-31.135 0-10.665 0.688-20.986 1.892-31.307 1.376-11.525-3.612-22.706-12.901-29.586l-96.5-70.526c5.16-14.965 11.181-29.586 17.889-43.52l118.346 18.406c11.353 1.72 22.878-2.752 29.93-11.697 12.901-16.341 27.694-31.135 44.208-44.208 8.945-7.225 13.589-18.578 11.697-29.93l-18.406-118.346z" />
<glyph unicode="&#xe937;" glyph-name="t-identity" d="M209.513 69.139c-62.613 0-113.529 50.916-113.529 113.529v498.497c0 62.613 50.916 113.529 113.529 113.529h623.035c62.613 0 113.529-50.916 113.529-113.529v-498.497c0-62.613-50.916-113.529-113.529-113.529h-623.035zM209.513 733.801c-28.898 0-52.636-23.566-52.636-52.636v-498.497c0-28.898 23.566-52.636 52.636-52.636h623.035c28.898 0 52.636 23.566 52.636 52.636v498.497c0 28.898-23.566 52.636-52.636 52.636h-623.035zM791.093 256.118c-16.857 0-30.446 13.761-30.446 30.446 0 51.948-42.143 94.092-94.092 94.092s-94.092-42.143-94.092-94.092c0-16.857-13.761-30.446-30.446-30.446-16.857 0-30.446 13.761-30.446 30.446 0 53.152 27.35 102.176 72.418 130.559-19.782 20.986-30.791 48.508-30.791 77.234 0 62.613 50.916 113.529 113.529 113.529s113.529-50.916 113.529-113.529c0-28.726-11.181-56.077-30.791-77.234 44.896-28.382 72.418-77.234 72.418-130.559-0.172-16.685-13.933-30.446-30.791-30.446zM666.555 546.822c-28.898 0-52.636-23.566-52.636-52.636s23.566-52.636 52.636-52.636c29.070 0 52.636 23.566 52.636 52.636s-23.738 52.636-52.636 52.636zM434.508 546.134h-186.291c-17.717 0-31.995 14.277-31.995 31.995s14.277 31.995 31.995 31.995h186.291c17.717 0 31.995-14.277 31.995-31.995s-14.277-31.995-31.995-31.995zM434.508 400.094h-186.291c-17.717 0-31.995 14.277-31.995 31.995s14.277 31.995 31.995 31.995h186.291c17.717 0 31.995-14.277 31.995-31.995s-14.277-31.995-31.995-31.995zM434.508 255.602h-186.291c-17.717 0-31.995 14.277-31.995 31.995s14.277 31.995 31.995 31.995h186.291c17.717 0 31.995-14.277 31.995-31.995s-14.277-31.995-31.995-31.995z" />
<glyph unicode="&#xe938;" glyph-name="t-refresh" d="M938.337 704.731c-16.685 6.020-35.091-2.752-40.939-19.438l-24.77-69.494c-29.070 65.537-74.998 123.162-133.483 166.338-185.947 137.611-450.849 100.112-590.18-83.943-67.43-89.103-95.984-198.848-80.159-308.937 15.825-110.605 74.482-208.481 164.79-275.395 75.686-55.905 164.273-83.083 252.173-83.083 128.495 0 255.269 57.625 338.008 166.854 36.639 48.336 61.581 102.348 74.482 160.833 3.784 17.373-7.225 34.403-24.426 38.187s-34.403-7.053-38.187-24.426c-10.837-49.368-31.995-95.124-62.957-135.891-118.174-156.017-342.996-187.839-500.905-70.87-76.546 56.593-126.086 139.331-139.503 232.907-13.417 93.060 10.665 185.775 67.774 261.117 118.002 156.017 342.652 188.011 500.733 71.042 57.281-42.315 100.112-100.972 123.334-167.198l-110.261 43.004c-16.513 6.365-35.091-1.72-41.627-18.233s1.72-35.091 18.233-41.627l162.381-63.473c3.784-1.548 7.741-2.236 11.697-2.236 0.516 0 1.032 0.172 1.548 0.172 1.204-0.172 2.408-0.688 3.612-0.688 13.245 0 25.63 8.257 30.274 21.33l57.797 161.693c5.848 17.029-2.752 35.435-19.438 41.455z" />
<glyph unicode="&#xe939;" glyph-name="t-search" d="M953.474 51.765l-152.577 163.241c61.925 74.482 95.812 167.37 95.812 265.074 0 229.295-186.635 415.93-416.102 415.93-229.295 0-415.93-186.635-415.93-415.93s186.635-415.93 415.93-415.93c60.033 0 118.002 12.557 172.186 37.327 16.169 7.397 23.222 26.318 15.825 42.315-7.397 16.169-26.318 23.222-42.315 15.825-45.928-20.814-94.952-31.479-145.696-31.479-194.032 0-351.941 157.909-351.941 351.941s157.909 351.941 351.941 351.941c194.032 0 351.941-157.909 351.941-351.941 0-91.339-34.919-177.863-98.048-243.744-12.213-12.729-11.869-33.027 0.86-45.24 1.032-0.86 2.236-1.204 3.268-2.064 0.86-1.204 1.376-2.752 2.408-3.956l165.478-177.003c6.193-6.709 14.793-10.149 23.394-10.149 7.913 0 15.653 2.924 21.846 8.601 13.073 12.041 13.761 32.339 1.72 45.24z" />
<glyph unicode="&#xe93a;" glyph-name="t-search-class" d="M967.923 143.793l-147.416 192.484c52.292 49.884 85.147 119.722 85.147 197.472 0 150.684-122.99 273.33-274.018 273.33-151.2 0-274.018-122.646-274.018-273.33s122.99-273.33 274.018-273.33c48.68 0 94.264 12.901 133.999 35.091l147.932-193.172c6.709-8.773 16.857-13.417 27.35-13.417 7.225 0 14.621 2.236 20.642 7.053 14.965 11.525 17.889 32.855 6.365 47.82v0zM421.091 533.749c0 115.765 94.436 209.857 210.545 209.857s210.545-94.092 210.545-209.857-94.436-209.857-210.545-209.857-210.545 94.092-210.545 209.857v0zM288.468 671.188h-205.213c-18.922 0-34.231 15.309-34.231 34.059s15.309 34.059 34.231 34.059h205.213c18.922 0 34.231-15.309 34.231-34.059s-15.309-34.059-34.231-34.059v0zM280.211 333.869h-196.956c-18.922 0-34.231 15.309-34.231 34.059s15.309 34.059 34.231 34.059h196.956c18.922 0 34.231-15.309 34.231-34.059s-15.309-34.059-34.231-34.059v0zM239.788 502.959h-156.533c-18.922 0-34.231 15.309-34.231 34.231s15.309 34.231 34.231 34.231h156.533c18.922 0 34.231-15.309 34.231-34.231-0.172-18.922-15.481-34.231-34.231-34.231v0zM460.138 158.758h-376.883c-18.922 0-34.231 15.309-34.231 34.231s15.309 34.231 34.231 34.231h376.883c18.922 0 34.231-15.309 34.231-34.231s-15.309-34.231-34.231-34.231v0z" />
<glyph unicode="&#xe93b;" glyph-name="t-power" d="M895.774 697.047c-0.361 0.361-1.084 1.084-1.445 1.806-6.14 5.779-13.364 9.030-20.95 8.669-7.585 0-14.448-3.251-19.866-8.308-5.057-5.057-8.308-11.558-8.669-18.782 0-0.361 0-0.361 0-0.722 0 0 0-0.361 0-0.361 0-7.224 2.167-13.726 6.14-18.782l0.361-0.361v-0.361c5.057-8.308 9.752-16.615 14.448-24.923-31.063-18.421-78.741-57.069-78.38-117.39 0.722-80.186-8.308-96.079-11.92-98.969-6.502-3.973-27.451-3.973-37.565-3.973-16.254 0-38.287-0.361-46.595-19.144-1.445-1.806-3.973-5.418-6.14-8.308-30.702-40.816-57.069-79.825-44.066-111.972 6.14-14.809 15.17-29.98 24.2-44.789 7.585-13.003 15.893-26.368 19.866-36.481 9.391-23.839 8.308-33.23 3.612-40.093-11.197-15.893-15.893-35.398-17.699-48.762-0.722-6.14-1.084-11.558-1.084-16.254-56.347-23.478-117.39-33.592-179.877-28.896-42.26 3.251-82.715 12.642-120.641 28.535-7.224 39.371-9.030 64.293-7.946 76.213 4.334-0.361 9.752-0.361 15.532 0.722 13.726 2.528 79.103 26.006 92.467 43.705 13.003 17.338 5.779 39.010-9.752 86.327-2.528 7.585-5.057 14.809-6.863 21.672-0.722 1.806-0.361 9.391 25.645 28.535 2.528 1.806 4.334 3.251 5.779 4.334 3.612 2.89 20.227 12.642 28.896 17.699 16.976 10.114 21.672 12.642 25.284 16.254 12.281 11.92 27.812 64.655 27.812 83.076 0 30.702-35.759 42.622-50.929 47.678-16.976 5.779-34.675 9.391-38.287 10.114-7.224 1.445-12.281 2.167-51.29-15.532-31.424-14.448-40.816-21.672-45.511-27.451-7.224-4.696-26.729-10.836-33.592-9.391-27.451 5.779-106.193-6.14-138.701-27.812-16.976-11.197-54.541-34.675-77.658-49.123-3.973 27.812-4.696 55.986-2.89 84.521 3.612 47.678 15.532 93.912 35.398 136.533 19.144 43.344 46.595 81.992 80.909 115.223 3.612 3.612 7.585 6.863 11.197 10.475l46.595-27.451 128.226-50.929h120.641l70.073 88.133 6.863 77.297c35.398-9.752 68.628-24.562 99.691-44.066l1.806-1.084h1.806c1.806-0.722 3.973-1.445 6.502-1.445 8.669-0.722 16.615 2.528 22.756 8.308 5.057 5.057 7.946 11.558 8.669 18.782 0.722 11.558-5.418 22.394-15.893 28.174v0 0c-62.849 38.648-131.477 61.043-203.716 66.461-61.404 4.696-121.363-3.251-178.794-22.394-55.625-19.505-106.915-48.401-151.343-87.049-7.224-6.502-14.448-13.003-21.311-19.866-35.036-33.953-63.932-73.323-86.327-116.667-27.812-54.18-44.066-112.333-48.401-173.376-4.696-61.404 3.251-121.363 22.394-178.794 18.782-55.263 47.678-106.193 86.327-150.981s84.521-80.909 136.533-107.637c54.18-27.812 112.333-44.066 173.376-48.401 61.404-4.696 121.363 3.251 178.794 22.394 55.263 18.782 106.193 47.678 150.981 86.327 7.224 6.502 14.448 13.003 21.311 19.866 35.036 34.314 63.932 73.685 86.327 117.029 27.812 54.18 44.066 112.694 48.401 173.376 7.946 98.246-16.976 194.686-71.517 278.846zM547.578 842.971c7.585-0.361 15.17-1.445 22.756-2.167l-5.779-66.461-42.26-52.735h-81.631l-113.778 45.15-22.756 13.726c71.517 46.595 156.038 68.989 243.448 62.487zM221.054 195.341c-36.12 41.899-62.487 89.577-78.38 140.868 10.836 6.863 72.601 44.789 96.44 60.681 18.421 12.281 80.909 21.672 94.995 19.144 26.729-5.418 71.517 8.669 88.133 27.451 8.308 5.418 36.842 18.782 49.846 23.839 10.836-2.528 24.562-6.502 33.592-10.475-2.528-10.114-7.224-23.839-10.114-31.424-3.612-2.167-8.669-5.057-12.642-7.585-17.699-10.475-29.618-17.699-36.12-22.756-0.722-0.722-2.167-1.445-3.612-2.528-16.615-12.281-61.404-45.15-46.595-92.106 2.167-7.224 4.696-14.809 7.224-22.756 3.251-10.114 8.308-24.923 11.197-35.759-15.17-7.585-40.454-18.060-49.123-19.505-1.084-0.361-3.973 0-6.14 0.361-10.836 1.084-44.066 4.696-54.541-39.732-3.251-13.726-3.251-34.314 0-61.404-31.063 20.227-59.237 45.15-84.159 73.685zM910.222 422.535c-3.612-47.678-15.532-93.912-35.398-136.533s-47.317-81.27-81.27-114.5c-5.779-5.779-12.281-11.558-18.421-16.976-11.197-9.752-22.756-18.782-35.036-26.729 19.505 34.675 5.057 71.517-1.445 87.41-5.779 14.809-15.17 29.98-24.2 45.15-7.224 11.92-14.448 24.2-19.144 34.314 1.084 6.863 8.669 22.033 35.398 57.792 1.084 1.806 2.528 3.251 3.251 4.334 1.445 0 2.528 0 3.612 0 19.505 0 45.872 0.361 65.738 11.558 35.036 19.866 41.538 70.073 41.177 149.537-0.361 28.896 24.2 50.568 44.066 63.571 18.421-50.568 25.645-104.387 21.672-158.928z" />
<glyph unicode="&#xe93c;" glyph-name="t-fill" d="M512 894.017c-245.952 0-446.017-200.064-446.017-446.017s200.064-446.017 446.017-446.017 446.017 200.064 446.017 446.017-200.064 446.017-446.017 446.017zM544.001 223.999c0-17.696-14.303-32.001-32.001-32.001s-32.001 14.303-32.001 32.001v288.001c0 17.696 14.303 32.001 32.001 32.001 17.696 0 32.001-14.303 32.001-32.001v-288.001zM512 607.999c-26.496 0-48 21.537-48 48 0 26.527 21.504 48 48 48s48-21.472 48-48c0-26.464-21.504-48-48-48z" />
<glyph unicode="&#xe93d;" glyph-name="t-user-center" d="M159.973 31.984c-10.665 0-20.986 5.332-27.178 14.965-9.461 14.965-4.988 34.747 9.977 44.208 5.504 3.44 136.579 85.491 240.648 90.651h0.516v17.889c-120.41 49.884-199.708 175.626-199.708 320.462 0 189.56 145.868 343.856 325.279 343.856s325.279-154.125 325.279-343.856c0-144.664-75.858-267.138-195.064-318.398v-20.298c104.757-9.461 234.799-86.695 240.476-89.963 15.137-9.117 20.126-28.726 11.009-43.864s-28.726-20.126-43.864-11.009c-1.204 0.688-126.258 74.826-214.158 81.363h-25.458c-17.717 0-31.995 14.277-31.995 31.995v73.966c0 13.589 8.601 25.802 21.674 30.274 105.445 36.295 173.39 140.708 173.39 266.278 0.172 153.953-116.97 279.523-261.117 279.523s-261.289-125.57-261.289-279.867c0-125.742 71.386-233.251 177.519-267.654 13.245-4.3 22.19-16.513 22.19-30.446v-72.246c0-17.717-14.277-31.995-31.995-31.995h-30.963c-85.835-4.3-206.761-79.987-207.965-80.847-5.332-3.268-11.353-4.988-17.201-4.988z" />
<glyph unicode="&#xe93e;" glyph-name="t-logistics" d="M351.941 384.097h-127.978c-17.717 0-31.995 14.277-31.995 31.995s14.277 31.995 31.995 31.995h95.984v95.984c0 17.717 14.277 31.995 31.995 31.995s31.995-14.277 31.995-31.995v-127.978c0-17.717-14.277-31.995-31.995-31.995zM702.162 293.101c-61.925 0-113.701-43.348-127.29-101.144h-123.85c-13.589 57.969-65.365 101.144-127.29 101.144-72.246 0-131.075-58.829-131.075-131.075 0-72.418 58.829-131.247 131.075-131.247 60.377 0 110.777 41.283 125.914 97.016h126.43c15.137-55.733 65.537-97.016 126.086-97.016 72.246 0 131.075 58.829 131.075 131.075s-58.829 131.247-131.075 131.247zM323.731 94.941c-36.983 0-67.086 30.102-67.086 67.258 0 36.983 30.102 67.086 67.086 67.086s67.086-30.102 67.086-67.086c0-37.155-30.102-67.258-67.086-67.258zM702.162 95.113c-36.983 0-67.086 30.102-67.086 67.086s30.102 67.086 67.086 67.086c36.983 0 67.086-30.102 67.086-67.086s-30.102-67.086-67.086-67.086zM864.027 864.016h-464.266c-44.036 0-79.815-35.779-79.815-79.815v-92.544l-194.548-97.704c-1.376-0.688-2.752-1.548-3.956-2.408-36.123-25.458-56.077-65.021-56.077-111.465v-322.010c0-17.717 14.277-31.995 31.995-31.995s31.995 14.277 31.995 31.995v322.010c0 24.942 9.117 44.552 27.006 57.969l210.029 105.273c1.376 0.688 2.408 2.064 3.612 2.924 1.892 1.376 3.784 2.58 5.332 4.128 1.376 1.548 2.408 3.268 3.44 4.988s2.236 3.268 2.924 5.332c0.86 2.236 1.032 4.472 1.376 6.709 0.172 1.548 0.86 2.924 0.86 4.472v112.325c0 8.601 7.053 15.825 15.825 15.825h464.266c17.545 0 31.995-14.621 31.995-32.511v-607.382c0-17.717 14.277-31.995 31.995-31.995s31.995 14.277 31.995 31.995v607.382c0 53.152-43.176 96.5-95.984 96.5z" />
<glyph unicode="&#xe93f;" glyph-name="t-heat" d="M511.914 31.984c-28.898 0-57.969 12.729-86.695 41.455l-318.914 322.526c-38.187 47.648-74.31 92.716-74.31 180.099 0 141.224 114.905 255.957 255.957 255.957 53.152 0 104.069-16.169 147.244-46.616 14.449-10.149 17.889-30.102 7.741-44.552s-30.102-17.889-44.552-7.741c-32.339 22.878-70.526 34.919-110.433 34.919-105.961 0-191.968-86.179-191.968-191.968 0-61.409 20.298-90.135 59.173-138.643l315.646-318.742c15.997-15.997 28.898-22.362 41.283-22.534 12.729-0.172 24.942 6.193 41.455 22.706l316.678 319.946c25.974 28.21 57.969 75.858 57.969 137.439 0 105.961-86.179 191.968-191.968 191.968-47.992 0-94.092-17.889-129.527-50.228l-133.999-134.171c-12.557-12.557-32.683-12.557-45.24 0s-12.557 32.683 0 45.24l135.031 135.203c48.336 44.208 109.745 67.946 173.734 67.946 141.224 0 255.957-114.905 255.957-255.957 0-82.395-41.111-144.32-75.686-181.647l-317.71-320.978c-28.898-28.898-57.797-41.627-86.867-41.627z" />
<glyph unicode="&#xe940;" glyph-name="t-watch" d="M509.506 210.018c-105.617 0-191.452 85.835-191.452 191.452s85.835 191.452 191.452 191.452 191.452-85.835 191.452-191.452-85.835-191.452-191.452-191.452zM509.506 529.105c-70.354 0-127.634-57.281-127.634-127.634s57.281-127.634 127.634-127.634 127.634 57.281 127.634 127.634-57.281 127.634-127.634 127.634zM860.587 50.389h-702.162c-52.808 0-95.812 43.004-95.812 95.812v510.538c0 52.808 43.004 95.812 95.812 95.812h95.812c17.545 0 31.995-14.277 31.995-31.995s-14.277-31.995-31.995-31.995h-95.812c-17.545 0-31.995-14.277-31.995-31.995v-510.538c0-17.545 14.277-31.995 31.995-31.995h701.99c17.545 0 31.995 14.277 31.995 31.995v510.71c0 17.545-14.277 31.995-31.995 31.995h-350.909c-17.545 0-31.995 14.277-31.995 31.995s14.277 31.995 31.995 31.995h351.081c52.808 0 95.812-43.004 95.812-95.812v-510.538c-0.172-52.98-43.176-95.984-95.812-95.984zM764.775 608.747c0-26.49 21.502-47.82 47.82-47.82 26.49 0 47.82 21.502 47.82 47.82s-21.502 47.82-47.82 47.82c-26.318 0.172-47.82-21.33-47.82-47.82zM477.683 816.196c0-17.545-14.277-31.995-31.995-31.995h-127.634c-17.545 0-31.995 14.277-31.995 31.995v0c0 17.545 14.277 31.995 31.995 31.995h127.634c17.545 0 31.995-14.277 31.995-31.995v0z" />
<glyph unicode="&#xe941;" glyph-name="t-bottom-b" d="M163.397 670.831c-40.578 0-66.525-54.185-35.441-85.258l349.262-349.278c20.032-20.032 49.824-20.032 69.854 0l349.274 349.278c30.305 30.294 6.678 85.258-34.929 85.258h-698.021z" />
<glyph unicode="&#xe942;" glyph-name="t-bottom" d="M890.335 629.089c-12.576 12.416-32.801 12.353-45.248-0.193l-327.839-330.848-332.416 329.439c-12.576 12.447-32.801 12.353-45.281-0.193-12.447-12.576-12.353-32.832 0.193-45.281l353.312-350.112c0.544-0.544 1.247-0.673 1.792-1.183 0.127-0.127 0.16-0.287 0.287-0.416 6.239-6.176 14.4-9.28 22.528-9.28 8.224 0 16.48 3.169 22.72 9.471l350.112 353.312c12.48 12.58 12.385 32.835-0.16 45.284z" />
<glyph unicode="&#xe943;" glyph-name="t-right-b" d="M761.056 427.872c0.513 0.993 1.343 1.823 1.792 2.849 8.801 18.305 5.919 40.703-9.664 55.425l-353.248 334.111c-19.265 18.208-49.631 17.345-67.872-1.889-18.208-19.265-17.376-49.631 1.889-67.872l316.96-299.839-315.713-304.288c-19.072-18.399-19.648-48.768-1.247-67.872 9.408-9.791 21.984-14.689 34.561-14.689 12 0 24 4.479 33.312 13.44l350.048 337.376c0.673 0.673 0.927 1.6 1.6 2.303 0.513 0.48 1.056 0.833 1.567 1.343 2.72 2.85 4.159 6.339 6.016 9.602z" />
<glyph unicode="&#xe944;" glyph-name="t-right" d="M512 0c-247.039 0-448 200.961-448 448s200.961 448 448 448 448-200.961 448-448-200.961-448-448-448zM512 832c-211.744 0-384-172.256-384-384s172.256-384 384-384 384 172.256 384 384-172.256 384-384 384zM668.832 458.848c-0.033 0.127-0.193 0.256-0.256 0.384-1.536 3.616-3.649 7.072-6.592 10.048-0.033 0.033-0.064 0.033-0.096 0.064-0.033 0.033-0.033 0.064-0.064 0.096l-158.912 159.359c-12.48 12.513-32.735 12.576-45.248 0.064-12.513-12.48-12.544-32.735-0.064-45.248l136.288-136.672-137.408-135.904c-12.576-12.447-12.673-32.672-0.256-45.248 6.239-6.335 14.496-9.504 22.751-9.504 8.128 0 16.256 3.103 22.497 9.248l160.255 158.496c9.504 9.379 11.873 23.204 7.104 34.819z" />
<glyph unicode="&#xe945;" glyph-name="t-cradit" d="M859.382 95.285h-694.765c-55.905 0-101.488 45.584-101.488 101.488v502.453c0 55.905 45.584 101.488 101.488 101.488h694.765c55.905 0 101.488-45.584 101.488-101.488v-502.453c0-55.905-45.584-101.488-101.488-101.488zM164.618 736.554c-20.642 0-37.499-16.685-37.499-37.327v-502.453c0-20.642 16.685-37.327 37.499-37.327h694.765c20.642 0 37.499 16.685 37.499 37.327v502.453c0 20.642-16.685 37.327-37.499 37.327h-694.765zM800.554 544.242h-577.107c-17.717 0-31.995 14.449-31.995 31.995 0 17.717 14.449 31.995 31.995 31.995h577.279c17.717 0 31.995-14.449 31.995-31.995 0-17.717-14.449-31.995-32.167-31.995zM319.602 223.608h-96.156c-17.717 0-31.995 14.277-31.995 31.995s14.449 31.995 31.995 31.995h96.156c17.717 0 31.995-14.277 31.995-31.995s-14.277-31.995-31.995-31.995z" />
<glyph unicode="&#xe946;" glyph-name="t-select" d="M887.905 661.791c-12.864 12.064-33.152 11.487-45.215-1.409l-426.754-454.366-233.12 229.696c-12.607 12.416-32.864 12.287-45.281-0.32-12.416-12.576-12.256-32.864 0.353-45.248l256.48-252.671c0.096-0.096 0.224-0.127 0.32-0.224s0.127-0.224 0.224-0.32c2.016-1.92 4.448-3.009 6.784-4.288 1.153-0.673 2.143-1.663 3.36-2.143 3.776-1.472 7.775-2.24 11.744-2.24 4.192 0 8.384 0.833 12.287 2.496 1.313 0.544 2.336 1.663 3.552 2.369 2.4 1.409 4.896 2.592 6.944 4.672 0.096 0.096 0.127 0.256 0.224 0.353 0.064 0.096 0.193 0.127 0.287 0.224l449.183 478.208c12.162 12.829 11.491 33.085-1.373 45.212z" />
<glyph unicode="&#xe947;" glyph-name="location" d="M512 960c-176.732 0-320-143.268-320-320 0-320 320-704 320-704s320 384 320 704c0 176.732-143.27 320-320 320zM512 448c-106.040 0-192 85.96-192 192s85.96 192 192 192 192-85.96 192-192-85.96-192-192-192z" />
<glyph unicode="&#xe948;" glyph-name="location2" d="M512 960c-176.732 0-320-143.268-320-320 0-320 320-704 320-704s320 384 320 704c0 176.732-143.27 320-320 320zM512 444c-108.248 0-196 87.752-196 196s87.752 196 196 196 196-87.752 196-196-87.752-196-196-196zM388 640c0 68.483 55.517 124 124 124s124-55.517 124-124c0-68.483-55.517-124-124-124s-124 55.517-124 124z" />
<glyph unicode="&#xe949;" glyph-name="compass" d="M544.010-64.004c-2.296 0-4.622 0.25-6.94 0.764-14.648 3.25-25.070 16.238-25.070 31.24v480h-480c-15.002 0-27.992 10.422-31.24 25.070-3.25 14.646 4.114 29.584 17.708 35.928l960 448c12.196 5.688 26.644 3.144 36.16-6.372 9.516-9.514 12.060-23.966 6.372-36.16l-448-960c-5.342-11.44-16.772-18.47-28.99-18.47zM176.242 512h367.758c17.674 0 32-14.328 32-32v-367.758l349.79 749.546-749.548-349.788z" />
<glyph unicode="&#xe94a;" glyph-name="t-zan" d="M95.984 63.978c-17.717 0-31.995 14.277-31.995 31.995v448.097c0 17.717 14.277 31.995 31.995 31.995s31.995-14.277 31.995-31.995v-447.925c0-17.889-14.277-32.167-31.995-32.167zM864.199 576.065h-189.388c13.761 31.995 29.586 114.733 20.47 190.076-7.225 59.861-42.487 105.789-93.748 123.334-38.015 12.901-78.266 6.537-99.94-15.481-25.802-26.318-37.843-75.858-50.744-128.323-8.429-34.231-17.029-69.838-27.866-88.243-31.135-52.98-96.328-77.062-109.401-81.363h-89.791c-17.717 0-31.995-14.277-31.995-31.995v-447.925c0-17.717 14.277-31.995 31.995-31.995h86.523c26.834-14.449 126.43-63.989 241.852-63.989h215.878c35.607 0 96.844 13.761 119.722 51.776 23.050 38.531 71.902 388.752 71.902 427.455 0.172 53.324-52.12 96.672-95.468 96.672zM833.236 84.792c-4.816-8.085-36.467-20.642-64.849-20.642h-216.050c-114.217 0-215.19 63.989-216.222 63.989v0c-4.816 0-10.149 0-16.169 0h-63.989v383.935h63.989c2.58 0 4.988 0.86 7.397 1.548 0.516 0.172 1.032 0 1.548 0.172 0.172 0.172 0.86 0.344 1.72 0.516 0.86 0.344 1.72 0.344 2.58 0.86 19.438 6.365 102.52 37.327 145.18 109.917 15.481 26.318 24.942 64.849 34.747 105.445 9.117 37.843 20.642 84.975 34.059 98.564 3.096 2.58 18.061 6.020 36.811-1.376 15.309-6.020 41.971-23.050 47.648-69.666 12.557-102.52-31.479-200.052-31.823-201.084-4.644-9.977-3.784-21.158 2.064-30.274s15.997-14.449 26.834-14.449h235.315c8.773 0 31.651-14.965 31.651-32.855 0.172-42.832-49.196-364.326-62.441-394.6z" />
<glyph unicode="&#xe94b;" glyph-name="t-settle" d="M332.256 797.568c-12 4.992-25.727 2.24-34.88-6.944l-192-192c-12.513-12.513-12.513-32.735 0-45.248s32.735-12.513 45.248 0l137.377 137.377v-530.752c0-17.696 14.336-32.001 31.999-32.001s31.999 14.303 31.999 32.001v607.999c0.002 12.927-7.808 24.607-19.743 29.568zM918.624 342.624c-12.513 12.513-32.735 12.513-45.248 0l-105.376-105.376v530.752c0 17.665-14.303 32.001-32.001 32.001s-32.001-14.336-32.001-32.001v-608.001c0-12.927 7.775-24.64 19.744-29.568 3.968-1.663 8.128-2.432 12.256-2.432 8.321 0 16.512 3.263 22.624 9.377l160.001 160.001c12.513 12.513 12.513 32.735 0 45.248z" />
<glyph unicode="&#xe94c;" glyph-name="coord" d="M511.914 352.102c-105.961 0-191.968 86.179-191.968 191.968s86.179 191.968 191.968 191.968 191.968-86.179 191.968-191.968-86.007-191.968-191.968-191.968zM511.914 672.048c-70.526 0-127.978-57.453-127.978-127.978s57.453-127.978 127.978-127.978 127.978 57.453 127.978 127.978-57.281 127.978-127.978 127.978zM511.914-0.011c-7.913 0-15.825 2.924-22.018 8.773-12.729 12.213-13.245 32.511-1.032 45.24 86.523 90.651 311.174 355.553 311.174 489.896 0 158.769-129.183 287.952-287.952 287.952s-287.952-129.183-287.952-287.952c0-75.686 72.59-206.073 204.181-367.422 11.181-13.761 9.117-33.887-4.472-45.068-13.761-11.181-33.887-9.117-45.068 4.472-145.18 178.035-218.802 315.13-218.802 408.189 0 194.032 157.909 351.941 351.941 351.941s352.113-157.909 352.113-351.941c0-187.323-315.474-519.999-328.891-534.104-6.365-6.537-14.621-9.977-23.222-9.977z" />
<glyph unicode="&#xe94d;" glyph-name="map-marker" d="M512 910.222c-219.945-0.277-398.222-177.5-398.222-396.11 0-314.306 285.556-472.583 370.277-509.305 7.333-3.195 15.166-4.805 22.972-4.805 1.668 0 3.305 0.361 4.972 0.5 1.668-0.139 3.305-0.5 4.972-0.5 7.806 0 15.639 1.611 22.972 4.805 84.722 36.72 370.277 194.999 370.277 509.305 0 218.61-178.251 395.833-398.222 396.11zM516.999 119.749c-1.5 0.779-3.362 1.749-4.999 2.583-1.639-0.834-3.5-1.806-4.999-2.583-73.001 36.862-279.445 161.751-279.445 394.363 0 155.527 127.556 282.055 284.444 282.332 156.889-0.277 284.444-126.805 284.444-282.332 0-232.612-206.444-357.5-279.445-394.363zM512 625.806c-62.834 0-113.778-50.944-113.778-113.806 0-62.834 50.944-113.778 113.778-113.778s113.778 50.944 113.778 113.778c0 62.86-50.944 113.806-113.778 113.806z" />
<glyph unicode="&#xe94e;" glyph-name="heart2" d="M711.111 739.555c78.416 0 142.222-76.555 142.222-170.667 0-179.445-217.223-324.999-341.333-386.86-124.251 61.943-341.333 207.472-341.333 386.86 0 94.112 63.806 170.667 142.222 170.667 36.583 0 76.612-25.028 107.111-66.944l46-50.389c22.722-31.221 69.278-31.221 92 0l46 50.389c30.5 41.916 70.528 66.944 107.111 66.944zM711.111 853.333c-80.473 0-152.167-49.278-199.111-113.778-46.944 64.5-118.638 113.778-199.111 113.778-141.388 0-256-127.362-256-284.444 0-325.333 455.111-512 455.111-512s455.111 186.667 455.111 512c0 157.083-114.612 284.444-256 284.444v0z" />
<glyph unicode="&#xe94f;" glyph-name="video-camera" d="M967.166 739.555c-6.583 0-13.362-1.278-20.028-4.028l-264.471-108.802v112.83c0 31.417-25.472 56.889-56.889 56.889h-568.889c-31.417 0-56.889-25.472-56.889-56.889v-568.889c0-31.417 25.472-56.889 56.889-56.889h568.889c31.417 0 56.889 25.472 56.889 56.889v112.832l264.473-108.804c6.667-2.75 13.444-4.028 20.028-4.028 30.137 0 56.832 26.722 56.832 62.473v443.943c0 35.751-26.695 62.473-56.834 62.473zM568.889 256c0-15.723-12.722-28.444-28.444-28.444h-398.222c-15.723 0-28.444 12.722-28.444 28.444v398.222c0 15.723 12.722 28.444 28.444 28.444h398.222c15.723 0 28.444-12.722 28.444-28.444v-398.222zM910.222 312.917l-227.556 93.611v97.166l227.556 93.611v-284.388z" />
<glyph unicode="&#xe950;" glyph-name="trophy" d="M967.111 796.444h-170.667v56.889c0 31.417-25.472 56.889-56.889 56.889h-455.111c-31.417 0-56.889-25.472-56.889-56.889v-56.889h-170.667c-31.417 0-56.889-25.472-56.889-56.889v-113.778c0-91.445 60.612-227.556 227.556-227.556h23.833c36.555-83.636 112.114-146.334 203.723-164.958v-119.486h-56.889c-62.834 0-113.778-50.944-113.778-113.778h455.111c0 62.834-50.944 113.778-113.778 113.778h-56.889v119.486c91.607 18.624 167.166 81.323 203.723 164.958h23.833c166.944 0 227.556 136.11 227.556 227.556v113.778c0 31.417-25.472 56.889-56.889 56.889zM227.556 512c-103.89 0-113.333 87.388-113.778 113.778v56.889h113.778v-170.667zM682.667 476.499l-14.306-32.695c-27.221-62.249-88.583-102.471-156.361-102.471s-129.166 40.222-156.361 102.473l-14.306 32.693v319.945h341.333v-319.945zM910.222 625.778c0-19.001-5.5-113.778-113.778-113.778v170.667h113.778v-56.889zM797.723 396.972c0.86 0 0.972 0.306-1.278 1.25v-1.111c0.473-0.084 0.944-0.139 1.278-0.139zM226.277 396.972c0.334 0 0.805 0.055 1.278 0.139v1.111c-2.251-0.944-2.139-1.25-1.278-1.25z" />
<glyph unicode="&#xe951;" glyph-name="printer" d="M967.111 796.444h-227.556v56.889c0 31.417-25.472 56.889-56.889 56.889h-341.333c-31.417 0-56.889-25.472-56.889-56.889v-56.889h-227.556c-31.417 0-56.889-25.472-56.889-56.889v-455.111c0-31.417 25.472-56.889 56.889-56.889h113.778v-170.667c0-31.417 25.472-56.889 56.889-56.889h568.889c31.417 0 56.889 25.472 56.889 56.889v170.667h113.778c31.417 0 56.889 25.472 56.889 56.889v455.111c0 31.417-25.472 56.889-56.889 56.889zM739.556 113.778h-455.111v227.556h455.111v-227.556zM910.222 369.778c0-15.723-12.722-28.444-28.444-28.444h-28.444v56.889c0 31.417-25.472 56.889-56.889 56.889h-568.889c-31.417 0-56.889-25.472-56.889-56.889v-56.889h-28.444c-15.723 0-28.444 12.722-28.444 28.444v284.444c0 15.723 12.722 28.444 28.444 28.444h739.556c15.723 0 28.444-12.722 28.444-28.444v-284.444z" />
<glyph unicode="&#xe952;" glyph-name="location3" d="M455.111 578.615v-294.171c0-31.417 25.472-56.889 56.889-56.889s56.889 25.472 56.889 56.889v294.171c66.281 23.435 113.778 86.64 113.778 160.94 0 94.251-76.416 170.667-170.667 170.667s-170.667-76.416-170.667-170.667c0-74.3 47.497-137.508 113.778-160.94zM910.222 568.889h-113.778c-31.417 0-56.889-25.472-56.889-56.889s25.472-56.889 56.889-56.889h28.444c15.723 0 28.444-12.722 28.444-28.444v-284.444c0-15.723-12.722-28.444-28.444-28.444h-625.778c-15.723 0-28.444 12.722-28.444 28.444v284.444c0 15.723 12.722 28.444 28.444 28.444h28.444c31.417 0 56.889 25.472 56.889 56.889s-25.472 56.889-56.889 56.889h-113.778c-31.417 0-56.889-25.472-56.889-56.889v-455.111c0-31.417 25.472-56.889 56.889-56.889h796.444c31.417 0 56.889 25.472 56.889 56.889v455.111c0 31.417-25.472 56.889-56.889 56.889z" />
<glyph unicode="&#xe96d;" glyph-name="bubbles2" horiz-adv-x="1152" d="M480 960v0c265.096 0 480-173.914 480-388.448s-214.904-388.448-480-388.448c-25.458 0-50.446 1.62-74.834 4.71-103.106-102.694-222.172-121.108-341.166-123.814v25.134c64.252 31.354 116 88.466 116 153.734 0 9.106-0.712 18.048-2.030 26.794-108.558 71.214-177.97 179.988-177.97 301.89 0 214.534 214.904 388.448 480 388.448zM996 89.314c0-55.942 36.314-104.898 92-131.772v-21.542c-103.126 2.318-197.786 18.102-287.142 106.126-21.14-2.65-42.794-4.040-64.858-4.040-95.47 0-183.408 25.758-253.614 69.040 144.674 0.506 281.26 46.854 384.834 130.672 52.208 42.252 93.394 91.826 122.414 147.348 30.766 58.866 46.366 121.582 46.366 186.406 0 10.448-0.45 20.836-1.258 31.168 72.57-59.934 117.258-141.622 117.258-231.676 0-104.488-60.158-197.722-154.24-258.764-1.142-7.496-1.76-15.16-1.76-22.966z" />
<glyph unicode="&#xe970;" glyph-name="bubbles4" horiz-adv-x="1152" d="M480 832c-50.666 0-99.582-7.95-145.386-23.628-42.924-14.694-81.114-35.436-113.502-61.646-60.044-48.59-93.112-110.802-93.112-175.174 0-35.99 10.066-70.948 29.92-103.898 20.686-34.34 51.898-65.794 90.26-90.958 30.44-19.968 50.936-51.952 56.362-87.95 0.902-5.99 1.63-12.006 2.18-18.032 2.722 2.52 5.424 5.114 8.114 7.794 24.138 24.040 56.688 37.312 90.322 37.312 5.348 0 10.718-0.336 16.094-1.018 19.36-2.452 39.124-3.696 58.748-3.696 50.666 0 99.58 7.948 145.384 23.628 42.926 14.692 81.116 35.434 113.504 61.644 60.046 48.59 93.112 110.802 93.112 175.174s-33.066 126.582-93.112 175.174c-32.388 26.212-70.578 46.952-113.504 61.646-45.804 15.678-94.718 23.628-145.384 23.628zM480 960v0c265.096 0 480-173.914 480-388.448s-214.904-388.448-480-388.448c-25.458 0-50.446 1.62-74.834 4.71-103.106-102.694-222.172-121.108-341.166-123.814v25.134c64.252 31.354 116 88.466 116 153.734 0 9.106-0.712 18.048-2.030 26.794-108.558 71.214-177.97 179.988-177.97 301.89 0 214.534 214.904 388.448 480 388.448zM996 89.314c0-55.942 36.314-104.898 92-131.772v-21.542c-103.126 2.318-197.786 18.102-287.142 106.126-21.14-2.65-42.794-4.040-64.858-4.040-95.47 0-183.408 25.758-253.614 69.040 144.674 0.506 281.26 46.854 384.834 130.672 52.208 42.252 93.394 91.826 122.414 147.348 30.766 58.866 46.366 121.582 46.366 186.406 0 10.448-0.45 20.836-1.258 31.168 72.57-59.934 117.258-141.622 117.258-231.676 0-104.488-60.158-197.722-154.24-258.764-1.142-7.496-1.76-15.16-1.76-22.966z" />
<glyph unicode="&#xe971;" glyph-name="user" d="M576 253.388v52.78c70.498 39.728 128 138.772 128 237.832 0 159.058 0 288-192 288s-192-128.942-192-288c0-99.060 57.502-198.104 128-237.832v-52.78c-217.102-17.748-384-124.42-384-253.388h896c0 128.968-166.898 235.64-384 253.388z" />
<glyph unicode="&#xe9d7;" glyph-name="star-empty" d="M1024 562.95l-353.78 51.408-158.22 320.582-158.216-320.582-353.784-51.408 256-249.538-60.432-352.352 316.432 166.358 316.432-166.358-60.434 352.352 256.002 249.538zM512 206.502l-223.462-117.48 42.676 248.83-180.786 176.222 249.84 36.304 111.732 226.396 111.736-226.396 249.836-36.304-180.788-176.222 42.678-248.83-223.462 117.48z" />
<glyph unicode="&#xe9d8;" glyph-name="star-half" d="M1024 562.95l-353.78 51.408-158.22 320.582-158.216-320.582-353.784-51.408 256-249.538-60.432-352.352 316.432 166.358 316.432-166.358-60.434 352.352 256.002 249.538zM512 206.502l-0.942-0.496 0.942 570.768 111.736-226.396 249.836-36.304-180.788-176.222 42.678-248.83-223.462 117.48z" />
<glyph unicode="&#xe9d9;" glyph-name="star-full" d="M1024 562.95l-353.78 51.408-158.22 320.582-158.216-320.582-353.784-51.408 256-249.538-60.432-352.352 316.432 166.358 316.432-166.358-60.434 352.352 256.002 249.538z" />
<glyph unicode="&#xe9da;" glyph-name="heart" d="M755.188 896c-107.63 0-200.258-87.554-243.164-179-42.938 91.444-135.578 179-243.216 179-148.382 0-268.808-120.44-268.808-268.832 0-301.846 304.5-380.994 512.022-679.418 196.154 296.576 511.978 387.206 511.978 679.418 0 148.392-120.43 268.832-268.812 268.832z" />
<glyph unicode="&#xe9db;" glyph-name="heart-broken" d="M755.188 896c148.382 0 268.812-120.44 268.812-268.832 0-292.21-315.824-382.842-511.978-679.418-207.522 298.424-512.022 377.572-512.022 679.418 0 148.392 120.426 268.832 268.808 268.832 60.354 0 115.99-27.53 160.796-67.834l-77.604-124.166 224-128-128-320 352 384-224 128 61.896 92.846c35.42 21.768 75.21 35.154 117.292 35.154z" />
<glyph unicode="&#xea32;" glyph-name="arrow-up" d="M512 928l-480-480h288v-512h384v512h288z" />
<glyph unicode="&#xea33;" glyph-name="arrow-up-right" d="M288 960l256-256-544-544 224-224 544 544 256-255.998v735.998h-736z" />
<glyph unicode="&#xea34;" glyph-name="arrow-right" d="M992 448l-480 480v-288h-512v-384h512v-288z" />
<glyph unicode="&#xea35;" glyph-name="arrow-down-right" d="M1024 672l-256-256-544 544-224-224 544-544-255.998-256h735.998v736z" />
<glyph unicode="&#xea36;" glyph-name="arrow-down" d="M512-32l480 480h-288v512h-384v-512h-288z" />
<glyph unicode="&#xea37;" glyph-name="arrow-down-left" d="M736-64l-256 256 544 544-224 224-544-544-256 255.998v-735.998h736z" />
<glyph unicode="&#xea38;" glyph-name="arrow-left" d="M32 448l480-480v288h512v384h-512v288z" />
<glyph unicode="&#xf00c;" glyph-name="check" d="M954.857 627.428c0-14.286-5.714-28.571-16-38.857l-491.429-491.429c-10.286-10.286-24.571-16-38.857-16s-28.571 5.714-38.857 16l-284.571 284.571c-10.286 10.286-16 24.571-16 38.857s5.714 28.571 16 38.857l77.714 77.714c10.286 10.286 24.571 16 38.857 16s28.571-5.714 38.857-16l168-168.571 374.857 375.429c10.286 10.286 24.571 16 38.857 16s28.571-5.714 38.857-16l77.714-77.714c10.286-10.286 16-24.571 16-38.857z" />
<glyph unicode="&#xf0d7;" glyph-name="caret-down" horiz-adv-x="585" d="M585.143 548.571c0-9.714-4-18.857-10.857-25.714l-256-256c-6.857-6.857-16-10.857-25.714-10.857s-18.857 4-25.714 10.857l-256 256c-6.857 6.857-10.857 16-10.857 25.714 0 20 16.571 36.571 36.571 36.571h512c20 0 36.571-16.571 36.571-36.571z" />
<glyph unicode="&#xf105;" glyph-name="angle-right" horiz-adv-x="347" d="M340 402.286c0-4.571-2.286-9.714-5.714-13.143l-266.286-266.286c-3.429-3.429-8.571-5.714-13.143-5.714s-9.714 2.286-13.143 5.714l-28.571 28.571c-3.429 3.429-5.714 8-5.714 13.143 0 4.571 2.286 9.714 5.714 13.143l224.571 224.571-224.571 224.571c-3.429 3.429-5.714 8.571-5.714 13.143s2.286 9.714 5.714 13.143l28.571 28.571c3.429 3.429 8.571 5.714 13.143 5.714s9.714-2.286 13.143-5.714l266.286-266.286c3.429-3.429 5.714-8.571 5.714-13.143z" />
<glyph unicode="&#xf107;" glyph-name="angle-down" horiz-adv-x="658" d="M614.286 530.286c0-4.571-2.286-9.714-5.714-13.143l-266.286-266.286c-3.429-3.429-8.571-5.714-13.143-5.714s-9.714 2.286-13.143 5.714l-266.286 266.286c-3.429 3.429-5.714 8.571-5.714 13.143s2.286 9.714 5.714 13.143l28.571 28.571c3.429 3.429 8 5.714 13.143 5.714 4.571 0 9.714-2.286 13.143-5.714l224.571-224.571 224.571 224.571c3.429 3.429 8.571 5.714 13.143 5.714s9.714-2.286 13.143-5.714l28.571-28.571c3.429-3.429 5.714-8.571 5.714-13.143z" />
<glyph unicode="&#xf110;" glyph-name="spinner" d="M300.571 154.286c0-40-32.571-73.143-73.143-73.143-40 0-73.143 33.143-73.143 73.143 0 40.571 33.143 73.143 73.143 73.143 40.571 0 73.143-32.571 73.143-73.143zM585.143 36.571c0-40.571-32.571-73.143-73.143-73.143s-73.143 32.571-73.143 73.143 32.571 73.143 73.143 73.143 73.143-32.571 73.143-73.143zM182.857 438.857c0-40.571-32.571-73.143-73.143-73.143s-73.143 32.571-73.143 73.143 32.571 73.143 73.143 73.143 73.143-32.571 73.143-73.143zM869.714 154.286c0-40-33.143-73.143-73.143-73.143-40.571 0-73.143 33.143-73.143 73.143 0 40.571 32.571 73.143 73.143 73.143 40 0 73.143-32.571 73.143-73.143zM318.857 723.428c0-50.286-41.143-91.429-91.429-91.429s-91.429 41.143-91.429 91.429 41.143 91.429 91.429 91.429 91.429-41.143 91.429-91.429zM987.429 438.857c0-40.571-32.571-73.143-73.143-73.143s-73.143 32.571-73.143 73.143 32.571 73.143 73.143 73.143 73.143-32.571 73.143-73.143zM621.714 841.143c0-60.571-49.143-109.714-109.714-109.714s-109.714 49.143-109.714 109.714 49.143 109.714 109.714 109.714 109.714-49.143 109.714-109.714zM924.571 723.428c0-70.857-57.714-128-128-128-70.857 0-128 57.143-128 128 0 70.286 57.143 128 128 128 70.286 0 128-57.714 128-128z" />
<glyph unicode="&#xf118;" glyph-name="smile-o" horiz-adv-x="878" d="M648 336.571c-28.571-92-112.571-153.714-209.143-153.714s-180.571 61.714-209.143 153.714c-6.286 19.429 4.571 39.429 24 45.714 18.857 6.286 39.429-4.571 45.714-24 18.857-61.143 75.429-102.286 139.429-102.286s120.571 41.143 139.429 102.286c6.286 19.429 26.857 30.286 46.286 24 18.857-6.286 29.714-26.286 23.429-45.714zM365.714 585.143c0-40.571-32.571-73.143-73.143-73.143s-73.143 32.571-73.143 73.143 32.571 73.143 73.143 73.143 73.143-32.571 73.143-73.143zM658.286 585.143c0-40.571-32.571-73.143-73.143-73.143s-73.143 32.571-73.143 73.143 32.571 73.143 73.143 73.143 73.143-32.571 73.143-73.143zM804.571 438.857c0 201.714-164 365.714-365.714 365.714s-365.714-164-365.714-365.714 164-365.714 365.714-365.714 365.714 164 365.714 365.714zM877.714 438.857c0-242.286-196.571-438.857-438.857-438.857s-438.857 196.571-438.857 438.857 196.571 438.857 438.857 438.857 438.857-196.571 438.857-438.857z" />
<glyph unicode="&#xf119;" glyph-name="frown-o" horiz-adv-x="878" d="M648 248.571c6.286-19.429-4.571-39.429-23.429-45.714-19.429-6.286-40 4.571-46.286 24-18.857 61.143-75.429 102.286-139.429 102.286s-120.571-41.143-139.429-102.286c-6.286-19.429-26.857-30.286-45.714-24-19.429 6.286-30.286 26.286-24 45.714 28.571 92 112.571 153.714 209.143 153.714s180.571-61.714 209.143-153.714zM365.714 585.143c0-40.571-32.571-73.143-73.143-73.143s-73.143 32.571-73.143 73.143 32.571 73.143 73.143 73.143 73.143-32.571 73.143-73.143zM658.286 585.143c0-40.571-32.571-73.143-73.143-73.143s-73.143 32.571-73.143 73.143 32.571 73.143 73.143 73.143 73.143-32.571 73.143-73.143zM804.571 438.857c0 201.714-164 365.714-365.714 365.714s-365.714-164-365.714-365.714 164-365.714 365.714-365.714 365.714 164 365.714 365.714zM877.714 438.857c0-242.286-196.571-438.857-438.857-438.857s-438.857 196.571-438.857 438.857 196.571 438.857 438.857 438.857 438.857-196.571 438.857-438.857z" />
<glyph unicode="&#xf15c;" glyph-name="file-text" horiz-adv-x="878" d="M838.857 678.857c5.714-5.714 10.857-12.571 16-20.571h-269.714v269.714c8-5.143 14.857-10.286 20.571-16zM566.857 585.143h310.857v-603.429c0-30.286-24.571-54.857-54.857-54.857h-768c-30.286 0-54.857 24.571-54.857 54.857v914.286c0 30.286 24.571 54.857 54.857 54.857h457.143v-310.857c0-30.286 24.571-54.857 54.857-54.857zM658.286 164.571v36.571c0 10.286-8 18.286-18.286 18.286h-402.286c-10.286 0-18.286-8-18.286-18.286v-36.571c0-10.286 8-18.286 18.286-18.286h402.286c10.286 0 18.286 8 18.286 18.286zM658.286 310.857v36.571c0 10.286-8 18.286-18.286 18.286h-402.286c-10.286 0-18.286-8-18.286-18.286v-36.571c0-10.286 8-18.286 18.286-18.286h402.286c10.286 0 18.286 8 18.286 18.286zM658.286 457.143v36.571c0 10.286-8 18.286-18.286 18.286h-402.286c-10.286 0-18.286-8-18.286-18.286v-36.571c0-10.286 8-18.286 18.286-18.286h402.286c10.286 0 18.286 8 18.286 18.286z" />
<glyph unicode="&#xf1ec;" glyph-name="calculator" horiz-adv-x="951" d="M219.429 73.143c0 40.571-32.571 73.143-73.143 73.143s-73.143-32.571-73.143-73.143 32.571-73.143 73.143-73.143 73.143 32.571 73.143 73.143zM438.857 73.143c0 40.571-32.571 73.143-73.143 73.143s-73.143-32.571-73.143-73.143 32.571-73.143 73.143-73.143 73.143 32.571 73.143 73.143zM219.429 292.571c0 40.571-32.571 73.143-73.143 73.143s-73.143-32.571-73.143-73.143 32.571-73.143 73.143-73.143 73.143 32.571 73.143 73.143zM658.286 73.143c0 40.571-32.571 73.143-73.143 73.143s-73.143-32.571-73.143-73.143 32.571-73.143 73.143-73.143 73.143 32.571 73.143 73.143zM438.857 292.571c0 40.571-32.571 73.143-73.143 73.143s-73.143-32.571-73.143-73.143 32.571-73.143 73.143-73.143 73.143 32.571 73.143 73.143zM219.429 512c0 40.571-32.571 73.143-73.143 73.143s-73.143-32.571-73.143-73.143 32.571-73.143 73.143-73.143 73.143 32.571 73.143 73.143zM658.286 292.571c0 40.571-32.571 73.143-73.143 73.143s-73.143-32.571-73.143-73.143 32.571-73.143 73.143-73.143 73.143 32.571 73.143 73.143zM438.857 512c0 40.571-32.571 73.143-73.143 73.143s-73.143-32.571-73.143-73.143 32.571-73.143 73.143-73.143 73.143 32.571 73.143 73.143zM877.714 73.143v219.429c0 40-33.143 73.143-73.143 73.143v0c-40 0-73.143-33.143-73.143-73.143v-219.429c0-40 33.143-73.143 73.143-73.143v0c40 0 73.143 33.143 73.143 73.143zM658.286 512c0 40.571-32.571 73.143-73.143 73.143s-73.143-32.571-73.143-73.143 32.571-73.143 73.143-73.143 73.143 32.571 73.143 73.143zM877.714 694.857v146.286c0 20-16.571 36.571-36.571 36.571h-731.429c-20 0-36.571-16.571-36.571-36.571v-146.286c0-20 16.571-36.571 36.571-36.571h731.429c20 0 36.571 16.571 36.571 36.571zM877.714 512c0 40.571-32.571 73.143-73.143 73.143s-73.143-32.571-73.143-73.143 32.571-73.143 73.143-73.143 73.143 32.571 73.143 73.143zM950.857 877.714v-877.714c0-40-33.143-73.143-73.143-73.143h-804.571c-40 0-73.143 33.143-73.143 73.143v877.714c0 40 33.143 73.143 73.143 73.143h804.571c40 0 73.143-33.143 73.143-73.143z" />
<glyph unicode="&#xf25a;" glyph-name="hand-pointer-o" horiz-adv-x="951" d="M365.714 877.714c-40.571 0-73.143-32.571-73.143-73.143v-512l-86.286 115.429c-14.286 18.857-37.143 30.857-61.143 30.857-40 0-72-33.714-72-73.143 0-16 5.143-31.429 14.857-44l219.429-292.571c13.714-18.286 35.429-29.143 58.286-29.143h410.286c16.571 0 31.429 11.429 35.429 27.429l52.571 210.286c9.143 36.571 13.714 73.714 13.714 110.857v124c0 30.286-23.429 57.714-54.857 57.714-30.286 0-54.857-24.571-54.857-54.857h-18.286v34.857c0 36-27.429 65.714-64 65.714-35.429 0-64-28.571-64-64v-36.571h-18.286v51.429c0 41.143-31.429 76.571-73.143 76.571-40.571 0-73.143-32.571-73.143-73.143v-54.857h-18.286v325.714c0 41.143-31.429 76.571-73.143 76.571zM365.714 950.857c81.714 0 146.286-68.571 146.286-149.714v-125.714c6.286 0.571 12 1.143 18.286 1.143 37.143 0 72-14.286 98.857-39.429 17.714 8 37.143 12 56.571 12 41.143 0 79.429-18.286 105.143-49.714 10.857 2.857 21.143 4 32 4 72 0 128-60 128-130.857v-124c0-42.857-5.143-86.286-16-128.571l-52.571-210.286c-12-48.571-56-82.857-106.286-82.857h-410.286c-45.714 0-89.714 22.286-117.143 58.286l-219.429 292.571c-18.857 25.143-29.143 56.571-29.143 88 0 80 65.143 146.286 145.143 146.286 26.286 0 52-6.857 74.286-20v312.571c0 80.571 65.714 146.286 146.286 146.286zM438.857 146.286v219.429h-18.286v-219.429h18.286zM585.143 146.286v219.429h-18.286v-219.429h18.286zM731.429 146.286v219.429h-18.286v-219.429h18.286z" />
<glyph unicode="&#xf2a0;" glyph-name="volume-control-phone" horiz-adv-x="805" d="M352.571-14.286c0 13.714-30.286 110.857-36.571 133.714-3.429 14.286-4.571 37.714-15.429 48-7.429 6.857-19.429 8-29.143 8-26.857 0-53.714-6.286-80.571-6.286-8 0-20 0.571-26.857 6.286-9.143 7.429-13.714 33.143-17.143 44.571-13.714 47.429-21.143 96-21.143 145.714s7.429 98.286 21.143 145.714c3.429 11.429 8 37.143 17.143 44.571 6.857 5.714 18.857 6.286 26.857 6.286 26.857 0 53.714-6.286 80.571-6.286 9.714 0 21.714 1.143 29.143 8 10.857 10.286 12 33.714 15.429 48 6.286 22.857 36.571 120 36.571 133.714 0 19.429-51.429 48-68 54.286-8.571 3.429-17.143 4.571-25.714 4.571-18.857 0-37.714-5.143-56-10.286-93.714-28-116-85.143-153.143-165.714-40-86.286-49.714-168.571-49.714-262.857s9.714-176.571 49.714-262.857c37.143-80.571 59.429-137.714 153.143-165.714 18.286-5.143 37.143-10.286 56-10.286 8.571 0 17.143 1.143 25.714 4.571 16.571 6.286 68 34.857 68 54.286zM443.429 507.428c-9.714 0-18.857 4-25.714 10.857-14.286 14.286-14.857 37.714 0 52 13.714 13.714 21.143 32 21.143 51.429s-7.429 37.714-21.143 52c-14.857 14.286-14.286 37.143 0 51.429s37.143 14.286 51.429 0c27.429-27.429 42.857-64.571 42.857-103.429s-15.429-76-42.857-103.429c-7.429-6.857-16.571-10.857-25.714-10.857zM546.857 404c-9.714 0-18.857 3.429-25.714 10.857-14.286 14.286-14.286 37.143 0 51.429 41.143 41.714 64 96.571 64 155.429s-22.857 113.714-64 155.429c-14.286 14.286-14.286 37.143 0 51.429s37.143 14.286 51.429 0c55.429-55.429 85.714-128.571 85.714-206.857s-30.286-151.429-85.714-206.857c-6.857-7.429-16.571-10.857-25.714-10.857zM650.286 300.571c-9.714 0-18.857 3.429-25.714 10.857-14.286 14.286-14.286 37.143 0 51.429 68.571 69.143 106.857 161.143 106.857 258.857s-38.286 189.714-106.857 258.857c-14.286 14.286-14.286 37.143 0 51.429s37.143 14.286 51.429 0c82.857-82.857 128.571-193.143 128.571-310.286s-45.714-227.429-128.571-310.286c-6.857-7.429-16.571-10.857-25.714-10.857z" />
</font>
</defs>
</svg>
